<svg width="539" height="377" viewBox="0 0 539 377" fill="none" xmlns="http://www.w3.org/2000/svg">
<path d="M122.691 99.8751C129.161 99.8751 134.406 94.6346 134.406 88.17C134.406 81.7055 129.161 76.465 122.691 76.465C116.222 76.465 110.977 81.7055 110.977 88.17C110.977 94.6346 116.222 99.8751 122.691 99.8751Z" fill="#DEE5DC"/>
<path d="M122.248 80.2757C126.953 80.2757 130.766 76.4652 130.766 71.7647C130.766 67.0643 126.953 63.2538 122.248 63.2538C117.544 63.2538 113.731 67.0643 113.731 71.7647C113.731 76.4652 117.544 80.2757 122.248 80.2757Z" fill="#DEE5DC"/>
<path d="M122.371 115.793C121.84 115.793 121.41 115.443 121.408 114.913L121.286 68.3006C121.284 67.7694 121.714 67.3212 122.246 67.3212C122.247 67.3212 122.247 67.3212 122.248 67.3212C122.779 67.3212 123.209 67.8051 123.211 68.3348L123.333 114.88C123.335 115.411 122.905 115.793 122.373 115.793C122.373 115.793 122.372 115.793 122.371 115.793Z" fill="#161616"/>
<path d="M122.372 91.6715C122.029 91.6715 121.696 91.4872 121.523 91.1633C121.272 90.6951 121.448 90.1123 121.917 89.8615L128.246 86.4758C128.714 86.225 129.298 86.4016 129.549 86.8697C129.8 87.3379 129.623 87.9207 129.155 88.1715L122.826 91.5572C122.681 91.6346 122.526 91.6715 122.372 91.6715Z" fill="#161616"/>
<path d="M122.249 77.4271C121.973 77.4271 121.7 77.3097 121.51 77.0824L116.531 71.1315C116.189 70.7238 116.244 70.1175 116.651 69.777C117.06 69.4354 117.666 69.4904 118.007 69.8978L122.986 75.8487C123.327 76.2564 123.273 76.8627 122.865 77.2032C122.686 77.3536 122.467 77.4271 122.249 77.4271Z" fill="#161616"/>
<path d="M58.135 176.959V107.714C58.135 107.714 353.871 89.2916 437.856 173.211L58.135 176.959Z" fill="#DEE5DC"/>
<path d="M58.135 177.017C58.135 177.017 262.185 140.343 492.03 167.835V319.123L58.135 314.791V177.017Z" fill="#EAEFE8"/>
<path d="M41.8706 179.935C41.412 179.935 41.0055 179.607 40.9239 179.14C40.8319 178.617 41.1818 178.119 41.7054 178.027C42.2979 177.922 101.97 167.56 189.803 161.33C241.387 157.67 292.455 156.129 341.582 156.752C403 157.529 461.548 161.706 515.6 169.168C516.127 169.241 516.495 169.726 516.422 170.252C516.35 170.778 515.864 171.144 515.337 171.073C461.364 163.622 402.896 159.451 341.558 158.675C292.482 158.054 241.47 159.593 189.939 163.249C102.204 169.473 42.6294 179.817 42.0381 179.921C41.9818 179.931 41.9256 179.935 41.8706 179.935Z" fill="#161616"/>
<path d="M369.818 101.517L330.418 91.6338C330.418 91.6338 327.588 86.1362 332.166 84.2523L367.918 91.8958C367.918 91.8958 372.451 96.4794 369.818 101.517Z" fill="white"/>
<path d="M369.818 102.479C369.74 102.479 369.661 102.47 369.584 102.45L330.183 92.5672C329.915 92.4998 329.688 92.3202 329.562 92.0744C329.495 91.9443 327.937 88.8637 328.914 86.2086C329.391 84.9125 330.362 83.9554 331.8 83.3634C331.979 83.2895 332.177 83.2714 332.368 83.3122L368.12 90.9557C368.303 90.9949 368.471 91.0869 368.603 91.2203C368.654 91.2723 369.867 92.5106 370.732 94.421C371.911 97.0235 371.889 99.6313 370.671 101.963C370.502 102.285 370.17 102.479 369.818 102.479ZM331.106 90.8149L369.273 100.389C370.633 96.8327 368.128 93.5935 367.415 92.7714L332.272 85.2584C331.49 85.6365 330.981 86.1666 330.721 86.8722C330.202 88.2817 330.794 90.0516 331.106 90.8149Z" fill="#161616"/>
<path d="M315.315 104.722V166.654L433.895 195.092V129.231L315.315 104.722Z" fill="#EAEFE8"/>
<path d="M434.087 196.054C434.013 196.054 433.937 196.046 433.863 196.028L315.283 167.589C314.85 167.485 314.545 167.099 314.545 166.654V104.722C314.545 104.433 314.675 104.159 314.9 103.977C315.124 103.794 315.418 103.721 315.703 103.781L434.283 128.289C434.729 128.381 435.05 128.775 435.05 129.231V195.092C435.05 195.387 434.915 195.665 434.683 195.847C434.512 195.983 434.301 196.054 434.087 196.054ZM316.47 165.896L433.125 193.872V130.014L316.47 105.903V165.896Z" fill="#161616"/>
<path d="M433.895 129.231L475.29 111.201L475.417 173.708L433.895 195.092V129.231Z" fill="#EAEFE8"/>
<path d="M434.088 196.054C433.914 196.054 433.74 196.007 433.587 195.914C433.3 195.739 433.125 195.428 433.125 195.092V129.231C433.125 128.848 433.352 128.503 433.702 128.349L475.001 110.32C475.298 110.191 475.639 110.218 475.912 110.396C476.183 110.573 476.348 110.874 476.349 111.199L476.524 173.706C476.525 174.066 476.324 174.398 476.003 174.563L434.529 195.947C434.39 196.018 434.239 196.054 434.088 196.054ZM435.05 129.86V193.513L474.598 173.123L474.428 112.669L435.05 129.86Z" fill="#161616"/>
<path d="M315.656 104.722L367.551 89.0255L475.401 111.201L434.117 129.231L315.656 104.722Z" fill="#EAEFE8"/>
<path d="M434.116 130.192C434.051 130.192 433.985 130.186 433.921 130.172L315.46 105.664C315.029 105.575 314.714 105.205 314.694 104.765C314.674 104.326 314.955 103.929 315.376 103.802L367.271 88.105C367.425 88.0588 367.588 88.0507 367.745 88.0834L475.594 110.259C476.004 110.343 476.313 110.684 476.357 111.1C476.4 111.517 476.169 111.914 475.785 112.082L434.502 130.112C434.379 130.165 434.248 130.192 434.116 130.192ZM319.556 104.547L434.011 128.227L472.237 111.533L367.596 90.0165L319.556 104.547Z" fill="#161616"/>
<path d="M434.088 152.531C434.013 152.531 433.937 152.522 433.864 152.505L315.432 124.23C314.915 124.106 314.597 123.587 314.72 123.071C314.843 122.554 315.363 122.235 315.88 122.359L433.983 150.555L473.72 131.846C474.201 131.619 474.774 131.825 475.001 132.306C475.227 132.786 475.021 133.359 474.54 133.586L434.498 152.439C434.369 152.5 434.228 152.531 434.088 152.531Z" fill="#161616"/>
<path d="M434.087 175.624C434.016 175.624 433.945 175.616 433.874 175.601L315.294 148.682C314.776 148.565 314.451 148.05 314.569 147.532C314.686 147.014 315.201 146.687 315.72 146.807L433.968 173.649L474.976 153.482C475.452 153.247 476.029 153.444 476.264 153.921C476.499 154.397 476.303 154.974 475.825 155.208L434.512 175.526C434.379 175.591 434.234 175.624 434.087 175.624Z" fill="#161616"/>
<path d="M422.345 140.154C420.541 140.154 419.073 138.687 419.073 136.884C419.073 135.081 420.541 133.614 422.345 133.614C424.15 133.614 425.618 135.081 425.618 136.884C425.618 138.687 424.15 140.154 422.345 140.154ZM422.345 135.538C421.602 135.538 420.998 136.142 420.998 136.884C420.998 137.627 421.602 138.231 422.345 138.231C423.088 138.231 423.693 137.627 423.693 136.884C423.693 136.142 423.088 135.538 422.345 135.538Z" fill="#161616"/>
<path d="M420.035 165.544C418.23 165.544 416.762 164.077 416.762 162.274C416.762 160.471 418.23 159.004 420.035 159.004C421.84 159.004 423.308 160.471 423.308 162.274C423.308 164.077 421.84 165.544 420.035 165.544ZM420.035 160.928C419.292 160.928 418.687 161.532 418.687 162.274C418.687 163.016 419.292 163.62 420.035 163.62C420.778 163.62 421.383 163.016 421.383 162.274C421.383 161.532 420.778 160.928 420.035 160.928Z" fill="#161616"/>
<path d="M325.325 142.462C323.52 142.462 322.052 140.995 322.052 139.192C322.052 137.389 323.52 135.922 325.325 135.922C327.129 135.922 328.597 137.389 328.597 139.192C328.597 140.995 327.129 142.462 325.325 142.462ZM325.325 137.846C324.582 137.846 323.977 138.45 323.977 139.192C323.977 139.935 324.582 140.539 325.325 140.539C326.068 140.539 326.672 139.935 326.672 139.192C326.672 138.45 326.068 137.846 325.325 137.846Z" fill="#161616"/>
<path d="M325.325 162.466C323.52 162.466 322.052 161 322.052 159.196C322.052 157.393 323.52 155.927 325.325 155.927C327.129 155.927 328.597 157.393 328.597 159.196C328.597 161 327.129 162.466 325.325 162.466ZM325.325 157.85C324.582 157.85 323.977 158.454 323.977 159.196C323.977 159.939 324.582 160.543 325.325 160.543C326.068 160.543 326.672 159.939 326.672 159.196C326.672 158.454 326.068 157.85 325.325 157.85Z" fill="#161616"/>
<path d="M328.741 120.207L289.341 110.324C289.341 110.324 286.512 104.826 291.09 102.942L326.842 110.586C326.842 110.586 331.375 115.169 328.741 120.207Z" fill="white"/>
<path d="M328.741 121.168C328.664 121.168 328.585 121.159 328.507 121.14L289.107 111.257C288.839 111.189 288.612 111.01 288.485 110.764C288.419 110.634 286.86 107.553 287.838 104.898C288.315 103.602 289.286 102.645 290.723 102.053C290.903 101.979 291.101 101.961 291.292 102.002L327.044 109.646C327.227 109.685 327.395 109.777 327.527 109.91C327.578 109.962 328.791 111.201 329.656 113.111C330.835 115.713 330.813 118.321 329.595 120.653C329.426 120.975 329.093 121.168 328.741 121.168ZM290.029 109.505L328.197 119.078C329.557 115.522 327.052 112.283 326.339 111.461L291.195 103.948C290.413 104.326 289.904 104.856 289.645 105.562C289.126 106.971 289.718 108.741 290.029 109.505Z" fill="#161616"/>
<path d="M340.34 108.744C340.34 108.744 348.168 75.9107 356.574 74.6935C364.98 73.4764 374.753 85.4019 374.753 85.4019L389.586 51.0799C389.586 51.0799 397.211 40.3935 411.318 44.24C425.424 48.0866 437.856 81.1783 437.856 81.1783C437.856 81.1783 453.709 82.6717 456.314 91.3462C458.919 100.021 461.985 115.897 461.985 115.897L434.116 128.077L340.34 108.744Z" fill="#8DC73F"/>
<path d="M401.162 89.9878C400.74 89.9878 400.352 89.7074 400.235 89.2807L398.125 81.6176C398.078 81.4472 398.079 81.2664 398.128 81.0964C398.145 81.0352 398.163 80.974 398.18 80.9121C398.176 80.9206 398.172 80.929 398.167 80.9375C397.915 81.4049 397.33 81.5792 396.863 81.3272C395.916 80.8171 391.161 78.1554 390.533 75.8711C390.381 75.3179 390.446 74.7843 390.72 74.3277C391.031 73.8095 391.531 73.4871 392.128 73.4202C393.334 73.2859 394.883 74.2773 396.125 75.2917C396.091 73.7633 396.277 71.971 397.167 70.9843C397.672 70.4253 398.346 70.1549 399.116 70.2084C399.749 70.2503 400.28 70.5542 400.655 71.0878C402.166 73.2394 400.561 79.5457 400.052 81.366L402.091 88.7702C402.232 89.2823 401.931 89.8116 401.418 89.9524C401.333 89.9766 401.247 89.9878 401.162 89.9878ZM392.379 75.326C392.396 75.8288 394.219 77.7157 397.777 79.6345C398.121 79.82 398.306 80.185 398.28 80.5509C399.2 77.1563 399.75 73.149 399.079 72.1926C399.036 72.1311 399.024 72.1303 398.989 72.1276C398.78 72.1161 398.686 72.173 398.597 72.2723C397.892 73.0516 397.985 75.8799 398.268 77.546C398.339 77.9623 398.13 78.3762 397.753 78.5662C397.375 78.7559 396.918 78.6786 396.625 78.3739C395.058 76.7447 393.085 75.3237 392.418 75.3237C392.404 75.324 392.391 75.3244 392.379 75.326Z" fill="#161616"/>
<path d="M363.432 102.683C363.01 102.683 362.622 102.402 362.505 101.976L360.395 94.3126C360.348 94.1422 360.349 93.9614 360.398 93.7913C360.416 93.7302 360.433 93.669 360.451 93.6071C360.446 93.6155 360.442 93.624 360.437 93.6325C360.184 94.0995 359.599 94.2741 359.133 94.0222C358.186 93.5121 353.431 90.8504 352.803 88.566C352.651 88.0129 352.716 87.4793 352.99 87.0226C353.301 86.5045 353.801 86.1821 354.398 86.1152C355.606 85.9801 357.153 86.9719 358.395 87.9867C358.361 86.4583 358.547 84.666 359.437 83.6793C359.942 83.1199 360.617 82.851 361.386 82.9033C362.019 82.9453 362.55 83.2492 362.925 83.7828C364.436 85.9344 362.831 92.2406 362.322 94.061L364.361 101.465C364.502 101.977 364.201 102.507 363.688 102.647C363.603 102.672 363.517 102.683 363.432 102.683ZM354.649 88.0209C354.666 88.5237 356.489 90.4106 360.047 92.3295C360.391 92.5149 360.576 92.88 360.55 93.2458C361.47 89.8513 362.02 85.8439 361.349 84.8876C361.306 84.826 361.294 84.8253 361.259 84.8226C361.05 84.8107 360.956 84.868 360.867 84.9672C360.162 85.7466 360.255 88.5749 360.538 90.241C360.61 90.6572 360.4 91.0712 360.023 91.2612C359.645 91.4512 359.188 91.3735 358.895 91.0689C357.295 89.4047 355.263 87.9482 354.649 88.0209Z" fill="#161616"/>
<path d="M395.982 102.847C395.781 102.847 395.577 102.784 395.404 102.654L389.048 97.876C388.906 97.7695 388.797 97.626 388.731 97.4609C388.708 97.4021 388.684 97.3428 388.66 97.2836C388.662 97.2928 388.664 97.302 388.666 97.3113C388.752 97.8356 388.396 98.33 387.872 98.4161C386.809 98.5908 381.417 99.3863 379.524 97.961C379.066 97.616 378.791 97.1539 378.728 96.625C378.658 96.0252 378.856 95.4648 379.288 95.047C380.157 94.2056 381.993 94.0425 383.596 94.0887C382.635 92.8996 381.686 91.3674 381.788 90.0421C381.845 89.292 382.215 88.668 382.857 88.2379C383.383 87.8855 383.99 87.8013 384.612 87.9948C387.124 88.7757 389.709 94.7485 390.42 96.4996L396.561 101.116C396.986 101.435 397.071 102.038 396.752 102.463C396.563 102.715 396.274 102.847 395.982 102.847ZM387.717 96.5054C388.044 96.5054 388.344 96.6723 388.519 96.9362C387.171 93.6875 385.157 90.1787 384.04 89.8317C383.968 89.8082 383.958 89.8159 383.93 89.8355C383.759 89.9502 383.718 90.056 383.708 90.1898C383.627 91.2404 385.429 93.4209 386.672 94.5638C386.984 94.8496 387.071 95.3051 386.889 95.6863C386.707 96.0672 386.299 96.2857 385.878 96.223C383.594 95.8829 381.108 95.9741 380.652 96.403C381.092 96.9708 384.425 97.0324 387.56 96.5184C387.613 96.5096 387.665 96.5054 387.717 96.5054Z" fill="#161616"/>
<path d="M414.023 66.6235C413.509 66.6235 413.083 66.2176 413.062 65.7002L412.746 57.7586C412.739 57.5816 412.781 57.4058 412.867 57.2515C412.898 57.1962 412.929 57.1411 412.959 57.0854C412.954 57.0923 412.948 57.0988 412.942 57.1054C412.59 57.5031 411.981 57.5416 411.584 57.19C410.777 56.4783 406.749 52.8083 406.656 50.4413C406.634 49.8685 406.818 49.363 407.189 48.9806C407.609 48.5471 408.165 48.347 408.766 48.4159C409.967 48.5563 411.254 49.8743 412.234 51.1445C412.547 49.6485 413.135 47.9446 414.227 47.1853C414.845 46.7556 415.563 46.6471 416.302 46.8717C416.908 47.056 417.357 47.4726 417.6 48.0766C418.583 50.5148 415.589 56.2933 414.68 57.9509L414.986 65.6236C415.007 66.1545 414.594 66.6019 414.063 66.6231C414.049 66.6231 414.037 66.6235 414.023 66.6235ZM408.577 50.3278C408.415 51.0272 410.475 53.6454 412.858 55.7478C413.15 56.0063 413.248 56.4025 413.14 56.7526C414.805 53.6547 416.251 49.8777 415.814 48.7944C415.786 48.7248 415.774 48.7217 415.741 48.711C415.543 48.6513 415.436 48.6863 415.326 48.7633C414.46 49.3653 413.909 52.1393 413.81 53.8243C413.785 54.2459 413.488 54.6018 413.077 54.7018C412.666 54.801 412.238 54.6218 412.022 54.2594C410.841 52.2767 409.199 50.4094 408.577 50.3278Z" fill="#161616"/>
<path d="M424.622 97.7121C424.616 97.7121 424.61 97.7121 424.605 97.7121C424.073 97.7121 423.65 97.1774 423.659 96.6465L423.799 88.6564C423.803 88.4791 423.855 88.2848 423.95 88.1355C423.984 88.0821 424.018 88.0171 424.052 87.9628C424.046 87.9701 424.039 87.9713 424.033 87.9782C423.658 88.3552 423.049 88.3548 422.671 87.9817C421.907 87.225 418.097 83.3292 418.14 80.961C418.15 80.3874 418.363 79.8931 418.755 79.5322C419.2 79.1237 419.77 78.9556 420.363 79.0583C421.555 79.2676 422.763 80.6563 423.668 81.9812C424.067 80.5055 424.752 78.8379 425.885 78.1423C426.526 77.7484 427.25 77.6815 427.974 77.9481C428.569 78.1666 428.994 78.6086 429.202 79.2253C430.043 81.7162 426.722 87.3131 425.72 88.9157L425.584 96.6804C425.575 97.2059 425.145 97.7121 424.622 97.7121ZM420.064 80.9564C419.862 81.645 421.768 84.3771 424.026 86.6122C424.304 86.8876 424.379 87.29 424.25 87.6335C426.091 84.636 427.752 80.9468 427.378 79.8404C427.354 79.7688 427.342 79.765 427.309 79.7523C427.114 79.6807 427.006 79.7111 426.892 79.7808C425.993 80.3324 425.284 83.0703 425.088 84.7464C425.039 85.1661 424.722 85.5046 424.306 85.5808C423.89 85.6566 423.473 85.4527 423.278 85.078C422.213 83.031 420.68 81.0726 420.064 80.9564Z" fill="#161616"/>
<path d="M404.442 91.7494C403.911 91.7494 403.48 91.3189 403.48 90.7877V86.9407C403.48 86.4095 403.911 85.979 404.442 85.979C404.974 85.979 405.405 86.4095 405.405 86.9407V90.7877C405.405 91.3189 404.974 91.7494 404.442 91.7494Z" fill="#161616"/>
<path d="M428.385 100.598C428.281 100.598 428.176 100.581 428.073 100.545C427.57 100.372 427.302 99.8253 427.475 99.3228L428.942 95.0581C429.115 94.5553 429.662 94.2883 430.166 94.4611C430.668 94.6338 430.936 95.1808 430.763 95.6832L429.296 99.948C429.158 100.347 428.785 100.598 428.385 100.598Z" fill="#161616"/>
<path d="M420.035 116.947C419.666 116.947 419.314 116.733 419.155 116.374L417.037 111.59C416.822 111.104 417.042 110.537 417.528 110.322C418.012 110.107 418.582 110.326 418.797 110.812L420.915 115.596C421.13 116.082 420.91 116.649 420.424 116.864C420.298 116.921 420.165 116.947 420.035 116.947Z" fill="#161616"/>
<path d="M423.308 115.985C422.905 115.985 422.529 115.73 422.394 115.328L421.239 111.865C421.071 111.361 421.344 110.816 421.848 110.648C422.354 110.481 422.898 110.753 423.066 111.257L424.221 114.719C424.389 115.223 424.117 115.768 423.612 115.936C423.511 115.969 423.409 115.985 423.308 115.985Z" fill="#161616"/>
<path d="M359.975 103.904C359.601 103.904 359.246 103.685 359.09 103.32L357.674 100.014C357.465 99.5251 357.691 98.9604 358.18 98.7511C358.669 98.5434 359.235 98.7688 359.444 99.257L360.86 102.563C361.069 103.052 360.842 103.616 360.353 103.826C360.23 103.878 360.102 103.904 359.975 103.904Z" fill="#161616"/>
<path d="M393.469 105.684C393.297 105.684 393.122 105.638 392.964 105.541L390.077 103.76C389.624 103.481 389.484 102.889 389.764 102.437C390.042 101.985 390.637 101.844 391.088 102.124L393.976 103.905C394.428 104.183 394.568 104.776 394.289 105.228C394.107 105.522 393.792 105.684 393.469 105.684Z" fill="#161616"/>
<path d="M443.713 97.1351C443.181 97.1351 442.75 96.7046 442.75 96.1733V91.9417C442.75 91.4104 443.181 90.9799 443.713 90.9799C444.244 90.9799 444.675 91.4104 444.675 91.9417V96.1733C444.675 96.7046 444.244 97.1351 443.713 97.1351Z" fill="#161616"/>
<path d="M446.601 97.1351C446.544 97.1351 446.486 97.1301 446.428 97.1197C445.905 97.0247 445.558 96.5238 445.653 96.0014L446.423 91.7698C446.518 91.2474 447.019 90.9012 447.542 90.9954C448.065 91.0904 448.412 91.5913 448.317 92.1137L447.547 96.3454C447.462 96.8097 447.057 97.1351 446.601 97.1351Z" fill="#161616"/>
<path d="M416.764 66.7442C416.734 66.7442 416.705 66.7431 416.676 66.74C416.146 66.6919 415.756 66.2241 415.804 65.6952L416.189 61.4635C416.237 60.9346 416.709 60.5418 417.235 60.593C417.764 60.6411 418.154 61.1088 418.106 61.6378L417.721 65.8694C417.676 66.3688 417.256 66.7442 416.764 66.7442Z" fill="#161616"/>
<path d="M69.1213 220.913L183.106 190.07C183.106 190.07 202.746 193.579 198.215 227.788L84.1479 268.446" fill="#161616"/>
<path d="M84.1477 269.408C83.7523 269.408 83.3816 269.163 83.2414 268.769C83.0628 268.269 83.3238 267.719 83.8247 267.541L197.336 227.08C198.527 217.574 198.438 204.804 191.624 196.72C188.028 192.454 184.046 191.281 183.131 191.06L69.3726 221.841C68.8594 221.981 68.3311 221.677 68.1922 221.164C68.0532 220.651 68.3566 220.123 68.8698 219.984L182.855 189.142C182.991 189.104 183.135 189.098 183.276 189.123C183.49 189.162 188.58 190.123 193.096 195.481C200.502 204.268 200.487 217.968 199.17 227.914C199.122 228.272 198.878 228.573 198.539 228.694L84.4711 269.352C84.3645 269.39 84.2551 269.408 84.1477 269.408Z" fill="#161616"/>
<path d="M72.539 271.273C86.4567 271.273 97.7392 259.999 97.7392 246.093C97.7392 232.186 86.4567 220.913 72.539 220.913C58.6214 220.913 47.3389 232.186 47.3389 246.093C47.3389 259.999 58.6214 271.273 72.539 271.273Z" fill="#DEE5DC"/>
<path d="M72.5391 272.235C58.1128 272.235 46.3765 260.508 46.3765 246.093C46.3765 231.678 58.1128 219.951 72.5391 219.951C86.9655 219.951 98.7018 231.678 98.7018 246.093C98.7018 260.508 86.9655 272.235 72.5391 272.235ZM72.5391 221.874C59.1746 221.874 48.3015 232.739 48.3015 246.093C48.3015 259.447 59.1746 270.311 72.5391 270.311C85.9036 270.311 96.7768 259.447 96.7768 246.093C96.7768 232.739 85.9036 221.874 72.5391 221.874Z" fill="#161616"/>
<path d="M72.539 253.259C76.4998 253.259 79.7108 250.051 79.7108 246.093C79.7108 242.135 76.4998 238.927 72.539 238.927C68.5781 238.927 65.3672 242.135 65.3672 246.093C65.3672 250.051 68.5781 253.259 72.539 253.259Z" fill="#EAEFE8"/>
<path d="M72.5391 254.221C68.0538 254.221 64.4048 250.574 64.4048 246.093C64.4048 241.611 68.0538 237.965 72.5391 237.965C77.0243 237.965 80.6734 241.611 80.6734 246.093C80.6734 250.574 77.0243 254.221 72.5391 254.221ZM72.5391 239.888C69.1153 239.888 66.3298 242.672 66.3298 246.093C66.3298 249.514 69.1153 252.297 72.5391 252.297C75.9629 252.297 78.7484 249.514 78.7484 246.093C78.7484 242.672 75.9629 239.888 72.5391 239.888Z" fill="#161616"/>
<path d="M118.129 236.676L232.114 205.833C232.114 205.833 251.754 209.343 247.223 243.552L133.156 284.21" fill="#161616"/>
<path d="M133.156 285.172C132.76 285.172 132.39 284.927 132.25 284.533C132.071 284.033 132.332 283.483 132.833 283.305L246.344 242.844C247.535 233.338 247.446 220.568 240.632 212.484C237.037 208.218 233.054 207.045 232.139 206.824L118.381 237.605C117.868 237.744 117.339 237.441 117.2 236.928C117.062 236.415 117.365 235.887 117.878 235.748L231.863 204.906C232 204.868 232.144 204.862 232.284 204.887C232.498 204.926 237.588 205.887 242.104 211.245C249.511 220.032 249.495 233.733 248.178 243.678C248.13 244.036 247.887 244.337 247.547 244.458L133.479 285.116C133.372 285.154 133.263 285.172 133.156 285.172Z" fill="#161616"/>
<path d="M121.547 287.036C135.465 287.036 146.747 275.763 146.747 261.856C146.747 247.95 135.465 236.676 121.547 236.676C107.629 236.676 96.3469 247.95 96.3469 261.856C96.3469 275.763 107.629 287.036 121.547 287.036Z" fill="#DEE5DC"/>
<path d="M121.547 287.999C107.121 287.999 95.3843 276.272 95.3843 261.857C95.3843 247.442 107.121 235.715 121.547 235.715C135.973 235.715 147.71 247.442 147.71 261.857C147.71 276.272 135.973 287.999 121.547 287.999ZM121.547 237.638C108.182 237.638 97.3093 248.502 97.3093 261.856C97.3093 275.211 108.182 286.075 121.547 286.075C134.911 286.075 145.785 275.211 145.785 261.856C145.785 248.502 134.911 237.638 121.547 237.638Z" fill="#161616"/>
<path d="M121.547 269.022C125.508 269.022 128.719 265.814 128.719 261.856C128.719 257.899 125.508 254.69 121.547 254.69C117.586 254.69 114.375 257.899 114.375 261.856C114.375 265.814 117.586 269.022 121.547 269.022Z" fill="#EAEFE8"/>
<path d="M121.547 269.984C117.062 269.984 113.413 266.338 113.413 261.856C113.413 257.375 117.062 253.729 121.547 253.729C126.032 253.729 129.681 257.375 129.681 261.856C129.681 266.338 126.032 269.984 121.547 269.984ZM121.547 255.652C118.123 255.652 115.338 258.436 115.338 261.857C115.338 265.278 118.123 268.061 121.547 268.061C124.971 268.061 127.756 265.278 127.756 261.857C127.756 258.436 124.971 255.652 121.547 255.652Z" fill="#161616"/>
<path d="M168.144 243.049L282.129 212.206C282.129 212.206 301.77 215.715 297.238 249.925L183.171 290.583" fill="#161616"/>
<path d="M183.171 291.545C182.776 291.545 182.405 291.299 182.265 290.906C182.086 290.405 182.347 289.856 182.848 289.677L296.359 249.217C298.035 235.86 296.094 225.407 290.735 218.962C287.142 214.64 283.078 213.426 282.152 213.197L168.396 243.978C167.883 244.118 167.355 243.813 167.216 243.301C167.077 242.788 167.38 242.26 167.893 242.121L281.878 211.278C282.016 211.241 282.159 211.235 282.3 211.26C282.514 211.298 287.604 212.26 292.12 217.618C299.527 226.405 299.511 240.105 298.193 250.051C298.146 250.409 297.902 250.71 297.562 250.831L183.494 291.489C183.387 291.527 183.278 291.545 183.171 291.545Z" fill="#161616"/>
<path d="M171.562 293.409C185.48 293.409 196.762 282.136 196.762 268.229C196.762 254.322 185.48 243.049 171.562 243.049C157.645 243.049 146.362 254.322 146.362 268.229C146.362 282.136 157.645 293.409 171.562 293.409Z" fill="#DEE5DC"/>
<path d="M171.562 294.371C157.136 294.371 145.399 282.644 145.399 268.229C145.399 253.814 157.136 242.087 171.562 242.087C185.988 242.087 197.725 253.814 197.725 268.229C197.725 282.644 185.988 294.371 171.562 294.371ZM171.562 244.011C158.198 244.011 147.324 254.875 147.324 268.229C147.324 281.583 158.198 292.448 171.562 292.448C184.927 292.448 195.8 281.583 195.8 268.229C195.8 254.875 184.927 244.011 171.562 244.011Z" fill="#161616"/>
<path d="M171.562 275.395C175.523 275.395 178.734 272.187 178.734 268.229C178.734 264.271 175.523 261.063 171.562 261.063C167.601 261.063 164.39 264.271 164.39 268.229C164.39 272.187 167.601 275.395 171.562 275.395Z" fill="#EAEFE8"/>
<path d="M171.562 276.357C167.077 276.357 163.428 272.711 163.428 268.229C163.428 263.747 167.077 260.101 171.562 260.101C176.047 260.101 179.696 263.747 179.696 268.229C179.696 272.711 176.047 276.357 171.562 276.357ZM171.562 262.025C168.138 262.025 165.353 264.808 165.353 268.229C165.353 271.65 168.138 274.433 171.562 274.433C174.986 274.433 177.771 271.65 177.771 268.229C177.771 264.808 174.986 262.025 171.562 262.025Z" fill="#161616"/>
<path d="M109.428 181.785L225.635 160.8C225.635 160.8 244.903 165.976 237.459 199.672L120.329 230.429" fill="#161616"/>
<path d="M120.329 231.392C119.902 231.392 119.512 231.106 119.398 230.674C119.263 230.16 119.57 229.634 120.085 229.499L236.644 198.892C239.457 185.728 238.419 175.147 233.631 168.267C230.421 163.653 226.476 162.097 225.573 161.789L109.599 182.732C109.077 182.827 108.575 182.479 108.481 181.956C108.386 181.434 108.734 180.933 109.256 180.839L225.464 159.854C225.605 159.829 225.748 159.834 225.885 159.872C226.095 159.928 231.085 161.322 235.125 167.046C241.752 176.434 240.563 190.083 238.399 199.88C238.322 200.232 238.053 200.511 237.704 200.603L120.574 231.36C120.492 231.381 120.409 231.392 120.329 231.392Z" fill="#161616"/>
<path d="M110.677 232.346C124.595 232.346 135.878 221.072 135.878 207.165C135.878 193.259 124.595 181.985 110.677 181.985C96.7598 181.985 85.4773 193.259 85.4773 207.165C85.4773 221.072 96.7598 232.346 110.677 232.346Z" fill="#DEE5DC"/>
<path d="M110.706 233.309C109.955 233.309 109.192 233.276 108.439 233.212C94.0661 231.978 83.3769 219.29 84.6109 204.928C85.1749 198.365 88.1648 192.306 93.03 187.866C97.8668 183.452 104.124 181.021 110.649 181.021C111.401 181.021 112.163 181.054 112.916 181.119C127.289 182.352 137.979 195.04 136.744 209.402C136.18 215.965 133.191 222.024 128.325 226.464C123.489 230.878 117.231 233.309 110.706 233.309ZM110.649 182.946C104.606 182.946 98.8097 185.198 94.3283 189.287C89.8211 193.399 87.0514 199.013 86.5285 205.094C85.3851 218.399 95.2881 230.152 108.604 231.295C109.302 231.355 110.009 231.385 110.706 231.385C116.749 231.385 122.545 229.133 127.027 225.044C131.534 220.932 134.304 215.318 134.826 209.237C135.97 195.932 126.067 184.178 112.751 183.036C112.053 182.976 111.346 182.946 110.649 182.946Z" fill="#161616"/>
<path d="M110.678 214.332C114.639 214.332 117.849 211.123 117.849 207.166C117.849 203.208 114.639 199.999 110.678 199.999C106.717 199.999 103.506 203.208 103.506 207.166C103.506 211.123 106.717 214.332 110.678 214.332Z" fill="#EAEFE8"/>
<path d="M110.686 215.293C110.452 215.293 110.215 215.283 109.982 215.263C107.817 215.077 105.854 214.061 104.455 212.4C103.056 210.739 102.387 208.633 102.573 206.47C102.931 202.303 106.487 199.038 110.669 199.038C110.903 199.038 111.14 199.048 111.374 199.068C113.539 199.253 115.501 200.271 116.9 201.931C118.3 203.592 118.968 205.698 118.782 207.861C118.424 212.028 114.868 215.293 110.686 215.293ZM110.669 200.961C107.478 200.961 104.764 203.454 104.491 206.635C104.349 208.286 104.859 209.894 105.927 211.161C106.996 212.429 108.494 213.205 110.146 213.347C110.326 213.362 110.507 213.371 110.686 213.371C113.877 213.371 116.59 210.878 116.864 207.697C117.006 206.046 116.496 204.438 115.428 203.17C114.359 201.902 112.861 201.127 111.209 200.985C111.03 200.969 110.848 200.961 110.669 200.961Z" fill="#161616"/>
<path d="M145.046 147.521L262.374 134.123C262.374 134.123 281.264 140.538 271.646 173.68L152.763 196.769" fill="#161616"/>
<path d="M152.761 197.731C152.31 197.731 151.907 197.412 151.817 196.953C151.716 196.432 152.057 195.927 152.579 195.825L270.883 172.848C274.545 159.895 274.196 149.269 269.867 142.093C266.963 137.28 263.128 135.471 262.247 135.106L145.156 148.476C144.629 148.542 144.151 148.158 144.09 147.63C144.03 147.102 144.409 146.626 144.937 146.565L262.264 133.168C262.405 133.152 262.549 133.167 262.683 133.213C262.89 133.283 267.777 134.997 271.437 140.972C277.439 150.77 275.366 164.312 272.57 173.948C272.469 174.294 272.183 174.555 271.828 174.624L152.945 197.714C152.884 197.725 152.822 197.731 152.761 197.731Z" fill="#161616"/>
<path d="M144.643 198.109C158.561 198.109 169.843 186.835 169.843 172.928C169.843 159.022 158.561 147.748 144.643 147.748C130.726 147.748 119.443 159.022 119.443 172.928C119.443 186.835 130.726 198.109 144.643 198.109Z" fill="#DEE5DC"/>
<path d="M144.674 199.074C143.359 199.074 142.027 198.973 140.716 198.774C133.807 197.726 127.72 194.053 123.576 188.43C119.432 182.807 117.728 175.908 118.777 169.005C119.722 162.785 122.878 157.115 127.664 153.039C132.402 149.005 138.421 146.783 144.612 146.783C145.928 146.783 147.26 146.884 148.57 147.082C162.833 149.246 172.675 162.601 170.509 176.852C169.564 183.071 166.408 188.741 161.622 192.817C156.885 196.852 150.866 199.074 144.674 199.074ZM144.612 148.707C138.878 148.707 133.303 150.766 128.913 154.503C124.479 158.279 121.555 163.532 120.68 169.293C119.708 175.689 121.287 182.08 125.126 187.289C128.965 192.498 134.604 195.902 141.005 196.872C142.22 197.057 143.455 197.15 144.674 197.15C150.409 197.15 155.984 195.092 160.373 191.353C164.807 187.578 167.73 182.325 168.606 176.564C170.612 163.361 161.495 150.989 148.281 148.984C147.066 148.8 145.832 148.707 144.612 148.707Z" fill="#161616"/>
<path d="M144.643 180.095C148.604 180.095 151.816 176.886 151.816 172.928C151.816 168.971 148.604 165.762 144.643 165.762C140.682 165.762 137.471 168.971 137.471 172.928C137.471 176.886 140.682 180.095 144.643 180.095Z" fill="#EAEFE8"/>
<path d="M144.653 181.057C144.244 181.057 143.83 181.026 143.422 180.964C138.988 180.291 135.928 176.139 136.601 171.708C137.2 167.77 140.654 164.8 144.635 164.8C145.044 164.8 145.458 164.831 145.864 164.893C150.299 165.566 153.359 169.718 152.686 174.149C152.087 178.087 148.634 181.057 144.653 181.057ZM144.635 166.724C141.597 166.724 138.962 168.991 138.504 171.998C137.991 175.379 140.326 178.549 143.711 179.062C144.024 179.109 144.34 179.134 144.653 179.134C147.691 179.134 150.326 176.867 150.782 173.861C151.296 170.478 148.96 167.309 145.575 166.795C145.264 166.747 144.948 166.724 144.635 166.724Z" fill="#161616"/>
<path d="M158.1 194.195L274.308 173.211C274.308 173.211 293.576 178.386 286.132 212.082L169.002 242.84" fill="#161616"/>
<path d="M169.001 243.802C168.574 243.802 168.184 243.516 168.071 243.084C167.936 242.571 168.243 242.045 168.757 241.91L285.316 211.302C287.317 201.932 288.322 189.202 282.225 180.565C279.008 176.007 275.14 174.498 274.247 174.199L158.271 195.142C157.749 195.238 157.247 194.889 157.153 194.366C157.058 193.844 157.405 193.343 157.929 193.249L274.137 172.264C274.276 172.24 274.42 172.245 274.558 172.282C274.768 172.338 279.757 173.732 283.798 179.456C290.425 188.844 289.236 202.493 287.072 212.29C286.994 212.642 286.726 212.921 286.377 213.013L169.246 243.77C169.165 243.792 169.082 243.802 169.001 243.802Z" fill="#161616"/>
<path d="M159.35 244.756C173.267 244.756 184.55 233.482 184.55 219.575C184.55 205.669 173.267 194.395 159.35 194.395C145.432 194.395 134.15 205.669 134.15 219.575C134.15 233.482 145.432 244.756 159.35 244.756Z" fill="#DEE5DC"/>
<path d="M159.379 245.719C158.627 245.719 157.864 245.686 157.111 245.622C150.148 245.024 143.835 241.753 139.335 236.412C134.834 231.069 132.685 224.296 133.283 217.339C133.847 210.775 136.837 204.716 141.702 200.276C146.538 195.863 152.796 193.432 159.321 193.432C160.072 193.432 160.835 193.465 161.588 193.529C168.55 194.127 174.864 197.398 179.364 202.74C183.865 208.082 186.014 214.855 185.416 221.812C184.852 228.376 181.862 234.435 176.997 238.875C172.161 243.288 165.904 245.719 159.379 245.719ZM159.321 195.356C153.278 195.356 147.482 197.608 143 201.696C138.493 205.809 135.723 211.423 135.201 217.503C134.647 223.949 136.638 230.223 140.807 235.172C144.977 240.122 150.825 243.151 157.276 243.705C157.974 243.765 158.681 243.795 159.379 243.795C165.422 243.795 171.218 241.543 175.699 237.454C180.206 233.342 182.976 227.728 183.498 221.648C184.053 215.202 182.061 208.928 177.892 203.978C173.723 199.029 167.874 195.999 161.424 195.446C160.725 195.386 160.018 195.356 159.321 195.356Z" fill="#161616"/>
<path d="M159.35 226.741C163.311 226.741 166.522 223.533 166.522 219.575C166.522 215.618 163.311 212.409 159.35 212.409C155.389 212.409 152.178 215.618 152.178 219.575C152.178 223.533 155.389 226.741 159.35 226.741Z" fill="#EAEFE8"/>
<path d="M159.358 227.703C159.125 227.703 158.887 227.693 158.654 227.673C156.489 227.487 154.526 226.471 153.127 224.81C151.728 223.149 151.059 221.043 151.245 218.88C151.604 214.712 155.159 211.448 159.341 211.448C159.575 211.448 159.812 211.458 160.046 211.478C164.515 211.862 167.838 215.806 167.454 220.271C167.096 224.439 163.54 227.703 159.358 227.703ZM159.341 213.371C156.15 213.371 153.437 215.863 153.163 219.045C153.021 220.696 153.532 222.303 154.6 223.571C155.668 224.839 157.166 225.615 158.818 225.757C158.998 225.772 159.18 225.78 159.358 225.78C162.549 225.78 165.263 223.288 165.536 220.107C165.829 216.699 163.292 213.687 159.881 213.395C159.702 213.379 159.52 213.371 159.341 213.371Z" fill="#161616"/>
<path d="M190.268 247.632C189.931 247.632 189.622 247.41 189.527 247.069C189.412 246.661 189.651 246.236 190.061 246.121L287.635 218.834C288.045 218.719 288.469 218.958 288.584 219.368C288.699 219.777 288.46 220.201 288.05 220.316L190.476 247.603C190.406 247.623 190.336 247.632 190.268 247.632Z" fill="#AFB7AC"/>
<path d="M195.273 254.556C194.936 254.556 194.627 254.334 194.531 253.994C194.417 253.585 194.656 253.16 195.065 253.046L292.64 225.759C293.051 225.644 293.474 225.883 293.589 226.292C293.704 226.701 293.464 227.126 293.055 227.241L195.48 254.528C195.411 254.547 195.341 254.556 195.273 254.556Z" fill="#AFB7AC"/>
<path d="M200.278 264.174C199.946 264.174 199.639 263.958 199.54 263.623C199.419 263.216 199.651 262.787 200.059 262.667L294.553 234.61C294.959 234.488 295.39 234.721 295.51 235.129C295.631 235.536 295.4 235.964 294.991 236.085L200.497 264.141C200.424 264.163 200.35 264.174 200.278 264.174Z" fill="#AFB7AC"/>
<path d="M199.123 275.33C198.8 275.33 198.5 275.126 198.393 274.803C198.258 274.4 198.477 273.964 198.88 273.83L294.915 241.927C295.318 241.792 295.755 242.011 295.888 242.414C296.022 242.818 295.804 243.253 295.4 243.387L199.366 275.29C199.285 275.317 199.203 275.33 199.123 275.33Z" fill="#AFB7AC"/>
<path d="M180.708 198.287C180.347 198.287 180.024 198.032 179.953 197.664C179.872 197.247 180.145 196.843 180.563 196.762L276.273 178.218C276.691 178.139 277.095 178.41 277.176 178.827C277.257 179.244 276.984 179.648 276.567 179.729L180.856 198.273C180.806 198.283 180.757 198.287 180.708 198.287Z" fill="#AFB7AC"/>
<path d="M184.966 205.319C184.605 205.319 184.282 205.064 184.211 204.696C184.13 204.279 184.402 203.875 184.82 203.794L280.531 185.25C280.949 185.17 281.352 185.442 281.434 185.859C281.514 186.276 281.242 186.68 280.824 186.761L185.114 205.305C185.064 205.315 185.015 205.319 184.966 205.319Z" fill="#AFB7AC"/>
<path d="M189.013 214.933C188.657 214.933 188.337 214.685 188.26 214.322C188.173 213.906 188.439 213.498 188.855 213.411L281.672 193.888C282.086 193.8 282.496 194.067 282.584 194.483C282.672 194.899 282.405 195.307 281.989 195.394L189.172 214.917C189.119 214.928 189.066 214.933 189.013 214.933Z" fill="#AFB7AC"/>
<path d="M187.032 225.541C186.686 225.541 186.371 225.306 186.285 224.955C186.184 224.542 186.437 224.126 186.85 224.025L281.445 200.934C281.857 200.833 282.274 201.086 282.375 201.499C282.477 201.912 282.223 202.328 281.81 202.429L187.216 225.52C187.154 225.535 187.093 225.541 187.032 225.541Z" fill="#AFB7AC"/>
<path d="M172.619 154.986C172.234 154.986 171.902 154.699 171.855 154.308C171.805 153.886 172.106 153.503 172.529 153.453L262.006 142.802C262.427 142.755 262.811 143.053 262.862 143.476C262.912 143.898 262.611 144.28 262.188 144.331L172.711 154.981C172.68 154.984 172.649 154.986 172.619 154.986Z" fill="#AFB7AC"/>
<path d="M205.856 159.143C205.477 159.143 205.146 158.863 205.094 158.477C205.038 158.055 205.333 157.668 205.755 157.611L265.445 149.573C265.866 149.519 266.254 149.811 266.311 150.233C266.367 150.654 266.072 151.042 265.651 151.098L205.96 159.136C205.926 159.141 205.891 159.143 205.856 159.143Z" fill="#AFB7AC"/>
<path d="M179.152 170.89C178.773 170.89 178.442 170.61 178.39 170.224C178.333 169.803 178.628 169.415 179.05 169.359L265.926 157.612C266.346 157.554 266.735 157.849 266.792 158.271C266.849 158.692 266.554 159.08 266.132 159.136L179.256 170.883C179.221 170.888 179.186 170.89 179.152 170.89Z" fill="#AFB7AC"/>
<path d="M176.611 180.536C176.242 180.536 175.915 180.27 175.852 179.894C175.782 179.475 176.064 179.078 176.484 179.007L265.239 164.09C265.656 164.019 266.056 164.303 266.126 164.722C266.197 165.141 265.914 165.537 265.495 165.608L176.739 180.525C176.696 180.532 176.653 180.536 176.611 180.536Z" fill="#AFB7AC"/>
<path d="M257.022 132.204C256.026 132.204 254.953 132.04 253.834 131.715C253.767 131.695 253.702 131.669 253.641 131.635L236.463 122.234C235.89 121.943 221.844 114.474 221.719 87.0818C221.717 86.7175 221.922 86.3836 222.247 86.2189C222.573 86.0546 222.963 86.0881 223.256 86.3059L245.63 102.94V69.6363C245.63 69.2374 245.877 68.8796 246.25 68.7376C246.624 68.5957 247.046 68.6984 247.311 68.9965C250.142 72.1691 258.494 80.4031 263.081 80.4031C263.79 80.4031 264.352 80.1992 264.799 79.7799C265.079 79.5168 265.487 79.4456 265.84 79.5983C266.192 79.7507 266.42 80.0973 266.42 80.4808V118.941C266.339 123.54 264.27 132.204 257.022 132.204ZM254.471 129.896C255.378 130.152 256.236 130.281 257.022 130.281C264.211 130.281 264.495 119.037 264.495 118.924V82.125C264.11 82.2593 263.585 82.3266 263.081 82.3266C258.149 82.3266 250.833 75.4317 247.555 72.0656V104.853C247.555 105.217 247.35 105.55 247.025 105.713C246.699 105.876 246.31 105.842 246.018 105.625L223.678 89.0172C223.912 96.3941 225.376 106.075 230.563 113.743C233.932 118.723 237.331 120.517 237.364 120.535L254.471 129.896Z" fill="#161616"/>
<path d="M250.058 73.6687C249.526 73.6687 249.095 73.2382 249.095 72.707V58.4595C248.237 56.7203 244.19 48.0342 247.24 44.6528C250.261 41.3036 254.721 40.2342 254.909 40.1899C255.233 40.1145 255.573 40.2119 255.808 40.4469C256.043 40.682 256.14 41.022 256.065 41.346C256.04 41.4525 255.545 43.516 254.376 45.2941C255.543 45.905 256.975 47.3229 257.315 50.6128C257.37 51.141 256.986 51.6138 256.457 51.6681C255.927 51.7242 255.455 51.3391 255.4 50.8106C254.99 46.8409 252.761 46.7548 252.738 46.7544C252.354 46.7471 252.01 46.5124 251.865 46.1566C251.719 45.8007 251.8 45.3929 252.069 45.1186C252.725 44.452 253.237 43.5037 253.598 42.6524C252.185 43.2248 250.187 44.2592 248.67 45.9407C246.916 47.8858 249.117 54.2459 250.917 57.7978C250.985 57.9328 251.021 58.0813 251.021 58.2325V72.707C251.02 73.2382 250.59 73.6687 250.058 73.6687Z" fill="#161616"/>
<path d="M261.993 78.6697C261.461 78.6697 261.03 78.2392 261.03 77.708V63.2631C261.03 63.0123 261.128 62.7715 261.304 62.5918L267.346 56.3982C267.717 56.0178 268.326 56.0105 268.707 56.3809C269.088 56.7518 269.095 57.3607 268.724 57.7408L262.955 63.6543V77.708C262.955 78.2392 262.524 78.6697 261.993 78.6697Z" fill="#161616"/>
<path d="M287.146 61.6524C281.945 61.6524 275.537 58.386 274.971 58.0921L255.865 49.5515C255.38 49.3345 255.162 48.7655 255.379 48.2808C255.596 47.7961 256.166 47.5788 256.651 47.7954L275.784 56.3479C275.802 56.3559 275.82 56.3648 275.838 56.374C275.926 56.4194 284.647 60.9396 289.317 59.4323C290.332 59.1046 291.04 58.5168 291.481 57.6343C291.699 57.2003 291.704 56.6929 291.5 56.0832C289.743 50.8629 274.607 42.4443 268.923 39.6414C259.702 34.7281 245.66 29.1158 243.229 31.9767C242.551 32.7746 242.281 33.6382 242.403 34.6173C242.819 37.961 247.48 41.3156 247.527 41.349C247.96 41.6572 248.061 42.2577 247.753 42.6901C247.444 43.1229 246.845 43.2236 246.411 42.9167C246.192 42.7605 241.017 39.0424 240.493 34.8589C240.302 33.3355 240.728 31.9471 241.761 30.7315C243.755 28.3852 248.997 28.928 257.785 32.3937C263.975 34.8346 269.744 37.8995 269.801 37.9299C270.638 38.3419 290.954 48.4293 293.323 55.47C293.695 56.5744 293.654 57.592 293.203 58.4945C292.527 59.8443 291.418 60.7757 289.906 61.2631C289.06 61.5366 288.124 61.652 287.146 61.6524Z" fill="#161616"/>
<path d="M292.613 56.6791C292.248 56.6791 291.9 56.4714 291.738 56.1194C286.483 44.7213 277.12 37.0605 263.91 33.3494C253.991 30.563 245.509 31.1789 245.424 31.1851C244.887 31.2255 244.431 30.8304 244.389 30.3011C244.348 29.7717 244.744 29.3089 245.273 29.2674C245.631 29.2397 254.13 28.6165 264.369 31.4802C273.864 34.1361 286.622 40.427 293.486 55.3146C293.708 55.797 293.497 56.3683 293.014 56.5903C292.884 56.6507 292.747 56.6791 292.613 56.6791Z" fill="#161616"/>
<path d="M286.545 46.9913C286.36 46.9913 286.172 46.9378 286.007 46.8262C285.566 46.5289 285.451 45.9307 285.749 45.4906C285.778 45.4467 288.78 40.8993 287.629 35.909C286.888 32.6972 284.592 29.9532 280.803 27.7527C275.222 24.5105 270.007 24.0804 265.305 26.4744C261.789 28.264 259.902 31.0053 259.883 31.033C259.585 31.4727 258.986 31.587 258.546 31.2892C258.106 30.9911 257.991 30.3929 258.29 29.9532C258.375 29.8278 266.98 17.4991 281.771 26.0901C286.045 28.5725 288.648 31.7382 289.509 35.4974C290.84 41.3113 287.486 46.3565 287.343 46.5681C287.157 46.8436 286.854 46.9913 286.545 46.9913Z" fill="#161616"/>
<path d="M288.349 42.8593C288.028 42.8593 287.715 42.6996 287.532 42.408C280.457 31.12 261.701 28.7683 261.513 28.7456C260.985 28.6829 260.608 28.2048 260.671 27.6773C260.733 27.1503 261.213 26.7741 261.739 26.8356C261.941 26.8595 266.742 27.4431 272.532 29.5046C280.267 32.2587 286.018 36.3676 289.164 41.3867C289.446 41.8368 289.31 42.4304 288.859 42.7123C288.7 42.812 288.523 42.8593 288.349 42.8593Z" fill="#161616"/>
<path d="M265.321 81.4426C265.07 81.4426 264.819 81.3449 264.631 81.1506C264.26 80.7698 264.27 80.1608 264.651 79.7907C265.279 79.181 265.552 78.534 265.484 77.8127C265.292 75.7584 262.495 73.4883 261.434 72.787C260.991 72.4939 260.869 71.8976 261.161 71.4544C261.454 71.0116 262.051 70.8897 262.494 71.1809C262.963 71.4898 267.085 74.2942 267.401 77.6303C267.524 78.9329 267.037 80.157 265.992 81.171C265.805 81.3526 265.563 81.4426 265.321 81.4426Z" fill="#161616"/>
<path d="M207.533 67.3412C206.276 67.3412 205.236 66.6811 205.099 66.5911C204.656 66.2976 204.535 65.7009 204.829 65.2581C205.122 64.8165 205.716 64.6953 206.159 64.9854C206.418 65.1523 207.233 65.547 207.89 65.3739C208.265 65.2754 208.57 64.9927 208.822 64.5099C209.069 64.039 209.65 63.8574 210.121 64.1029C210.592 64.3491 210.775 64.93 210.529 65.4008C209.889 66.6242 208.998 67.0754 208.363 67.2381C208.081 67.3112 207.802 67.3412 207.533 67.3412Z" fill="#161616"/>
<path d="M221.631 64.9931C220.374 64.9931 219.334 64.333 219.198 64.243C218.755 63.9494 218.634 63.3528 218.927 62.91C219.22 62.4684 219.814 62.3472 220.258 62.6373C220.517 62.805 221.331 63.1993 221.989 63.0258C222.363 62.9273 222.668 62.6446 222.921 62.1618C223.167 61.6909 223.748 61.509 224.22 61.7548C224.691 62.001 224.873 62.5819 224.627 63.0527C223.987 64.2761 223.096 64.7273 222.462 64.8904C222.179 64.9631 221.9 64.9931 221.631 64.9931Z" fill="#161616"/>
<path d="M213.979 83.7754C211.792 83.7754 209.398 83.5123 206.807 82.9864C202.236 82.0582 198.802 80.6463 198.657 80.5867C198.166 80.3832 197.933 79.8208 198.137 79.3299C198.34 78.8398 198.903 78.6059 199.394 78.8094C199.528 78.8648 212.873 84.3013 221.111 80.4848C227.57 77.4926 222.956 63.002 220.633 57.6705C220.421 57.1835 220.644 56.6168 221.131 56.4049C221.618 56.1917 222.186 56.4152 222.398 56.9027C222.769 57.7555 231.392 77.8427 221.92 82.2301C219.699 83.2603 217.041 83.7754 213.979 83.7754Z" fill="#161616"/>
<path d="M194.661 85.3557C194.188 85.3557 193.776 85.0075 193.709 84.5259L192.15 73.2786C190.059 73.2613 188.207 72.5342 187.079 71.2578C186.261 70.3326 185.41 68.6557 186.001 65.9209C186.36 64.2614 187.325 63.4927 188.071 63.1408C190.728 61.8878 194.663 63.8394 195.104 64.0663C195.576 64.3098 195.761 64.8896 195.518 65.3616C195.275 65.8332 194.695 66.0179 194.222 65.7763C193.258 65.282 190.42 64.1575 188.892 64.8807C188.559 65.0381 188.092 65.3593 187.883 66.3264C187.545 67.8913 187.76 69.1224 188.522 69.9841C189.41 70.9889 191.048 71.4898 192.899 71.3247C193.409 71.2755 193.867 71.6425 193.938 72.1507L195.616 84.2616C195.689 84.7875 195.321 85.2733 194.794 85.3461C194.749 85.3526 194.705 85.3557 194.661 85.3557Z" fill="#161616"/>
<path d="M199.026 69.2448H200.704L199.026 57.3431L183.921 45.7788C183.921 45.7788 176.2 52.8553 180.229 64.1033C184.257 75.3522 193.328 74.769 193.328 74.769C193.328 74.769 195.139 72.4166 192.984 72.2811C190.783 72.1438 186.766 71.4525 186.942 66.1834C187.108 61.2112 196.676 63.859 199.026 69.2448Z" fill="#161616"/>
<path d="M185.263 44.4808L200.704 57.2872C200.704 57.2872 217.32 57.0584 222.69 54.5428L224.536 59.2388C224.536 59.2388 232.425 46.8286 222.69 38.6111C212.956 30.3941 195.334 25.5304 185.263 44.4808Z" fill="#161616"/>
<path d="M174.857 166.769C174.621 166.769 174.391 166.682 174.213 166.521C173.992 166.322 173.876 166.033 173.898 165.737L178.361 104.806C178.386 103.894 179.118 86.134 194.619 85.4454C194.753 85.4388 194.881 85.4611 194.998 85.5042C195.252 85.41 195.542 85.425 195.792 85.5604L208.531 92.4545L217.863 84.3394C218.138 84.1001 218.524 84.0366 218.861 84.1755L222.118 85.5165C222.15 85.5296 222.181 85.5442 222.211 85.5604C222.659 85.8039 233.198 91.6705 233.89 104.803C234.555 117.436 233.898 155.137 233.891 155.516C233.883 155.976 233.55 156.366 233.097 156.446L175.026 166.754C174.97 166.764 174.914 166.769 174.857 166.769ZM194.758 87.3631C194.741 87.365 194.723 87.3661 194.705 87.3669C188.859 87.627 184.663 90.6026 182.233 96.2114C180.37 100.514 180.285 104.824 180.284 104.867C180.284 104.886 180.283 104.905 180.282 104.924L175.908 164.644L231.98 154.691C232.07 149.176 232.576 116.453 231.967 104.904C231.354 93.2581 222.018 87.6677 221.33 87.2727L218.678 86.1805L218.603 86.2451C218.813 86.4652 218.916 86.781 218.851 87.1015L216.081 100.686C216.012 101.025 215.767 101.3 215.438 101.408C215.109 101.516 214.748 101.439 214.492 101.206L208.848 96.0918L204.616 102.531C204.431 102.814 204.105 102.973 203.772 102.964C203.433 102.95 203.128 102.759 202.966 102.462L194.758 87.3631ZM197.728 88.7953L203.89 100.131L207.768 94.2287L197.728 88.7953ZM209.543 94.1252L214.532 98.6465L216.728 87.8766L209.543 94.1252Z" fill="#161616"/>
<path d="M198.66 159.648H190.96V86.9406H195.698L198.66 92.5818V159.648Z" fill="#946D42"/>
<path d="M210.435 137.791C209.921 137.791 209.496 137.386 209.474 136.869L207.698 94.6637C207.676 94.1332 208.089 93.6851 208.62 93.6624C209.145 93.6558 209.599 94.0524 209.622 94.5833L211.397 136.788C211.419 137.319 211.007 137.767 210.476 137.79C210.462 137.79 210.448 137.791 210.435 137.791Z" fill="#161616"/>
<path d="M225.995 159.648H217.91V87.0772L219.663 85.0649L225.995 89.7604V159.648Z" fill="#946D42"/>
<path d="M174.79 165.897V186.357C174.79 186.357 177.358 200.108 190.063 196.754C202.769 193.4 217.932 187.028 217.932 187.028C217.932 187.028 226.899 183.002 230.591 174.282C234.284 165.562 232.985 155.5 232.985 155.5L174.79 165.897Z" fill="#946D42"/>
<path d="M180.393 98.4799L166.298 148.791C166.298 148.791 164.955 157.512 171.501 159.524C178.047 161.536 180.396 160.194 181.403 159.524C182.41 158.853 224.034 134.088 224.034 134.088L215.138 117.096L185.767 131.518" fill="#DEE5DC"/>
<path d="M177.431 161.549C175.864 161.549 173.849 161.252 171.218 160.443C165.412 158.658 164.839 151.945 165.347 148.645C165.353 148.607 165.361 148.569 165.371 148.532L179.466 98.2206C179.61 97.709 180.142 97.4108 180.653 97.554C181.165 97.6971 181.463 98.2279 181.32 98.7392L167.241 148.991C167.138 149.74 166.301 156.92 171.784 158.605C178.122 160.553 180.189 159.176 180.869 158.724C181.82 158.091 216.861 137.237 222.758 133.728L214.72 118.373L186.191 132.381C185.714 132.615 185.137 132.419 184.903 131.942C184.669 131.465 184.865 130.889 185.342 130.655L214.714 116.232C215.183 116.002 215.749 116.188 215.991 116.65L224.886 133.642C225.123 134.095 224.965 134.653 224.526 134.915C210.145 143.471 182.738 159.792 181.937 160.324C181.044 160.919 179.714 161.549 177.431 161.549Z" fill="#161616"/>
<path d="M219.67 70.3988H215.985C215.454 70.3988 215.023 69.9683 215.023 69.437C215.023 68.9058 215.454 68.4753 215.985 68.4753H218.06L216.476 65.5324C216.224 65.0646 216.4 64.4818 216.868 64.2298C217.336 63.9786 217.919 64.1533 218.172 64.6218L220.518 68.9819C220.678 69.2797 220.67 69.6402 220.496 69.9306C220.322 70.221 220.008 70.3988 219.67 70.3988Z" fill="#161616"/>
<path d="M219.662 152.771L240.395 126.342C240.395 126.342 250.981 119.22 256.385 123.983C262.854 129.684 262.57 140.071 262.57 140.071V193.735C262.57 193.735 270.911 201.785 270.911 208.158C270.911 208.158 266.774 211.176 256.461 208.158C246.147 205.139 237.16 193.4 237.16 193.4V168.916L219.663 186.03" fill="#946D42"/>
<path d="M186.593 165.806L207.413 139.399C207.413 139.399 218.127 132.289 223.531 137.052C230.001 142.753 229.845 153.151 229.845 153.151V206.816C229.845 206.816 238.1 214.866 238.1 221.238C238.1 221.238 233.814 224.257 223.5 221.238C213.187 218.22 204.05 206.481 204.05 206.481V165.803" fill="#946D42"/>
<path d="M204.243 177.536C203.711 177.536 203.28 177.106 203.28 176.574V165.803C203.28 165.272 203.711 164.841 204.243 164.841C204.774 164.841 205.205 165.272 205.205 165.803V176.574C205.205 177.106 204.774 177.536 204.243 177.536Z" fill="#161616"/>
<path d="M229.653 177.536C229.121 177.536 228.69 177.106 228.69 176.574V153.151C228.693 153.032 228.817 143.13 222.768 137.799C220.328 135.648 216.476 136.387 213.675 137.384C210.887 138.377 208.569 139.812 208.014 140.167L183.52 171.824C183.195 172.244 182.591 172.322 182.17 171.996C181.75 171.672 181.672 171.068 181.997 170.647L206.591 138.862C206.654 138.78 206.73 138.709 206.816 138.651C207.276 138.343 218.147 131.163 224.041 136.356C230.768 142.285 230.615 152.731 230.615 153.172V176.574C230.615 177.106 230.184 177.536 229.653 177.536Z" fill="#161616"/>
<path d="M229.845 206.816V176.574H204.05V206.481C204.05 206.481 213.244 218.22 223.558 221.238C233.872 224.257 238.055 221.238 238.055 221.238C238.056 214.866 229.845 206.816 229.845 206.816Z" fill="#FBFCFA"/>
<path d="M232.01 223.542C229.415 223.542 226.513 223.078 223.384 222.162C218.962 220.867 214.265 217.93 209.426 213.432C205.846 210.105 203.577 207.192 203.482 207.07C203.351 206.901 203.281 206.694 203.281 206.481V176.382C203.281 175.851 203.711 175.42 204.243 175.42H230.038C230.57 175.42 231.001 175.851 231.001 176.382V206.422C232.501 207.966 239.163 215.166 239.163 221.239C239.163 221.55 239.013 221.841 238.76 222.021C238.672 222.084 236.575 223.542 232.01 223.542ZM205.205 206.144C206.587 207.847 214.859 217.662 223.925 220.316C226.878 221.18 229.598 221.618 232.01 221.618C234.812 221.618 236.489 221.022 237.215 220.683C236.761 214.862 229.438 207.576 229.362 207.501C229.178 207.32 229.075 207.074 229.075 206.816V177.344H205.205V206.144Z" fill="#161616"/>
<path d="M230.076 207.778C229.808 207.778 229.541 207.667 229.351 207.45C227.147 204.933 220.553 206.317 218.198 207.062C217.691 207.224 217.151 206.942 216.99 206.436C216.829 205.93 217.11 205.389 217.617 205.229C217.713 205.198 220.008 204.478 222.729 204.196C226.581 203.797 229.296 204.465 230.8 206.182C231.15 206.582 231.109 207.19 230.709 207.539C230.527 207.7 230.301 207.778 230.076 207.778Z" fill="#161616"/>
<path d="M237.16 168.916V193.4C237.16 193.4 246.248 205.14 256.561 208.158C266.875 211.177 270.92 208.158 270.92 208.158C270.92 201.785 262.57 193.735 262.57 193.735V163.11H236.957L237.16 168.916Z" fill="#FBFCFA"/>
<path d="M264.976 210.461C262.406 210.461 259.516 209.997 256.386 209.081C251.963 207.786 247.284 204.848 242.479 200.349C238.925 197.021 236.682 194.107 236.588 193.985C236.459 193.817 236.39 193.611 236.39 193.4V168.947L235.996 162.981C235.979 162.716 236.072 162.455 236.254 162.26C236.435 162.066 236.69 161.956 236.957 161.956H262.763C263.294 161.956 263.725 162.386 263.725 162.918V193.336C265.253 194.883 272.027 202.082 272.027 208.158C272.027 208.463 271.881 208.75 271.635 208.932C271.551 208.994 269.51 210.461 264.976 210.461ZM238.315 193.066C239.679 194.766 247.864 204.582 256.928 207.235C259.881 208.099 262.589 208.538 264.976 208.538C267.725 208.538 269.366 207.946 270.079 207.608C269.62 201.789 262.17 194.501 262.092 194.425C261.905 194.244 261.8 193.995 261.8 193.735V163.879H237.984L238.313 168.853C238.314 168.874 238.315 168.895 238.315 168.916V193.066H238.315Z" fill="#161616"/>
<path d="M237.353 164.072C236.821 164.072 236.39 163.641 236.39 163.11V148.876C236.39 148.345 236.821 147.915 237.353 147.915C237.884 147.915 238.315 148.345 238.315 148.876V163.11C238.315 163.641 237.884 164.072 237.353 164.072Z" fill="#161616"/>
<path d="M250.384 195.727C250.003 195.727 249.642 195.499 249.491 195.125C249.293 194.632 249.531 194.073 250.023 193.874C250.31 193.758 257.114 191.063 263.236 192.81C263.747 192.957 264.043 193.489 263.897 193.999C263.751 194.511 263.219 194.806 262.707 194.66C257.23 193.096 250.807 195.632 250.743 195.658C250.626 195.705 250.504 195.727 250.384 195.727Z" fill="#161616"/>
<path d="M181.335 45.3938H178.255C177.724 45.3938 177.293 44.9633 177.293 44.432C177.293 43.9008 177.724 43.4703 178.255 43.4703H181.335C181.867 43.4703 182.298 43.9008 182.298 44.432C182.298 44.9633 181.867 45.3938 181.335 45.3938Z" fill="#161616"/>
<path d="M181.235 42.0884C180.983 42.0884 180.731 41.9899 180.542 41.7941L179.032 40.2292C178.663 39.8468 178.674 39.2382 179.057 38.8693C179.439 38.5007 180.049 38.5119 180.418 38.8939L181.928 40.4588C182.297 40.8412 182.286 41.4498 181.903 41.8187C181.717 41.9992 181.476 42.0884 181.235 42.0884Z" fill="#161616"/>
<path d="M213.627 88.0389C213.129 88.0389 212.707 87.6554 212.668 87.1507L212.332 82.7902C212.292 82.2608 212.688 81.7984 213.218 81.7577C213.75 81.71 214.211 82.1131 214.252 82.6428L214.588 87.0034C214.629 87.5327 214.232 87.9951 213.702 88.0359C213.676 88.0386 213.651 88.0389 213.627 88.0389Z" fill="#161616"/>
<path d="M217.621 120.556L232.258 112.065C232.258 112.065 237.964 109.549 241.321 112.065C244.677 114.581 248.706 120.556 248.706 120.556C248.706 120.556 245.744 121.165 244.623 120.556L242.999 117.264C242.999 117.264 246.751 124.635 245.295 125.98C243.838 127.326 239.642 122.295 239.642 122.295C239.642 122.295 244.006 129.794 242.328 131.243C240.649 132.692 236.957 125.436 236.957 125.436C236.957 125.436 233.601 130.54 228.901 128.835L223.698 131.434" fill="#DEE5DC"/>
<path d="M223.699 132.397C223.346 132.397 223.006 132.201 222.837 131.865C222.599 131.389 222.792 130.812 223.267 130.574L228.47 127.975C228.706 127.857 228.981 127.841 229.229 127.931C233.147 129.351 236.033 125.089 236.154 124.907C236.343 124.621 236.668 124.456 237.012 124.477C237.354 124.497 237.66 124.695 237.815 125C239.163 127.647 240.972 130.146 241.736 130.446C242.067 129.63 240.72 126.06 238.81 122.778C238.559 122.346 238.681 121.794 239.09 121.507C239.5 121.22 240.062 121.295 240.381 121.679C241.953 123.56 243.975 125.249 244.639 125.25C244.915 124.511 243.961 121.481 242.537 118.502L242.136 117.689C241.902 117.215 242.095 116.64 242.568 116.404C243.041 116.167 243.617 116.356 243.857 116.828C244.029 117.165 244.21 117.531 244.395 117.917L245.32 119.794C245.701 119.881 246.333 119.884 247.011 119.827C245.658 117.966 243.01 114.533 240.743 112.834C238.023 110.795 233.201 112.714 232.689 112.926L218.104 121.388C217.645 121.655 217.055 121.499 216.789 121.039C216.522 120.58 216.678 119.991 217.138 119.724L231.774 111.233C231.805 111.215 231.837 111.199 231.869 111.185C232.123 111.073 238.134 108.474 241.898 111.295C245.345 113.879 249.335 119.769 249.504 120.019C249.683 120.285 249.718 120.623 249.596 120.92C249.475 121.217 249.214 121.434 248.899 121.498C248.54 121.572 247.221 121.822 245.972 121.784C246.64 123.865 246.889 125.817 245.948 126.687C245.57 127.035 245.08 127.2 244.532 127.166C243.983 127.13 243.374 126.868 242.765 126.488C243.923 129.386 243.978 131.089 242.958 131.971C242.542 132.329 242.011 132.467 241.463 132.36C239.799 132.034 237.896 129.111 236.801 127.177C235.155 128.955 232.29 130.849 228.977 129.872L224.129 132.295C223.99 132.363 223.843 132.397 223.699 132.397Z" fill="#161616"/>
<path d="M250.886 108.834C250.685 108.834 250.483 108.771 250.309 108.641L246.282 105.623C245.857 105.304 245.77 104.701 246.089 104.277C246.409 103.852 247.012 103.766 247.437 104.084L251.464 107.102C251.889 107.421 251.976 108.024 251.657 108.449C251.468 108.701 251.179 108.834 250.886 108.834Z" fill="#161616"/>
<path d="M256.258 33.7481C256.258 33.7481 250.271 32.7052 248.873 35.0153C247.475 37.3258 266.966 47.4994 266.966 47.4994C266.966 47.4994 285.966 57.0587 288.348 54.7932C290.376 52.8651 285.517 48.4427 285.517 48.4427C285.517 48.4427 261.131 33.8301 256.258 33.7481Z" fill="#161616"/>
<path d="M205.871 72.4711C205.588 73.9771 209.758 78.4808 214.736 76.6084C217.42 75.599 215.804 73.1016 212.681 73.1016C210.935 73.1012 206.727 67.9286 205.871 72.4711Z" fill="#161616"/>
<path d="M367.248 211.212C367.016 211.212 366.789 211.128 366.611 210.971L361.647 206.595C361.248 206.243 361.21 205.635 361.562 205.237C361.913 204.839 362.522 204.801 362.92 205.152L366.727 208.509L370.055 196.356C370.195 195.844 370.722 195.542 371.237 195.682C371.75 195.822 372.052 196.351 371.912 196.863L368.176 210.504C368.088 210.824 367.842 211.076 367.523 211.171C367.433 211.199 367.34 211.212 367.248 211.212Z" fill="#161616"/>
<path d="M367.249 211.212C367.183 211.212 367.116 211.205 367.049 211.191L361.214 209.959C360.693 209.849 360.361 209.339 360.471 208.819C360.581 208.299 361.095 207.97 361.611 208.076L367.446 209.309C367.967 209.419 368.299 209.929 368.19 210.448C368.094 210.901 367.694 211.212 367.249 211.212Z" fill="#161616"/>
<path d="M350.282 168.627C350.282 168.627 359.609 184.577 360.925 188.107C362.241 191.637 377.215 211.965 394.411 201.06C394.411 201.06 403.756 197.417 404.016 184.189L372.087 169.821C372.087 169.82 358.33 154.361 350.282 168.627Z" fill="#EAEFE8"/>
<path d="M384.085 205.042C384.084 205.042 384.083 205.042 384.082 205.042C370.911 205.042 361.126 191.319 360.023 188.361C358.751 184.949 349.544 169.23 349.452 169.071C349.279 168.776 349.276 168.432 349.444 168.134C351.89 163.798 355.105 161.61 358.999 161.61C365.518 161.61 371.636 167.91 372.664 169.02L404.41 183.309C404.762 183.467 404.985 183.821 404.978 184.206C404.719 197.365 395.925 201.385 394.853 201.835C391.388 204.017 387.766 205.042 384.085 205.042ZM351.397 168.627C352.999 171.377 360.613 184.432 361.827 187.69C362.808 190.32 372.095 203.118 384.083 203.118C384.084 203.118 384.085 203.118 384.085 203.118C387.421 203.118 390.721 202.179 393.895 200.166C393.948 200.133 394.003 200.145 394.062 200.123C394.41 199.985 402.524 196.649 403.034 184.781L371.692 170.687C371.569 170.632 371.459 170.556 371.368 170.455C371.307 170.386 365.129 163.541 359 163.541C355.988 163.541 353.433 165.253 351.397 168.627Z" fill="#161616"/>
<path d="M404.016 184.189L423.744 171.739C423.744 171.739 417.254 194.304 404.016 184.189Z" fill="#161616"/>
<path d="M403.642 185.066L426.931 183.633C426.931 183.633 410.378 200.297 403.642 185.066Z" fill="#161616"/>
<path d="M404.031 186.852L426.456 193.293C426.456 193.293 405.275 203.458 404.031 186.852Z" fill="#161616"/>
<path d="M356.065 163.103C356.065 163.103 352.501 154.361 356.065 154.62C359.627 154.879 361.413 157.732 361.413 157.732C361.413 157.732 365.333 154.076 366.634 155.515C367.935 156.954 364.331 163.936 364.331 163.936" fill="#946D42"/>
<path d="M389.998 214.659H383.46C382.928 214.659 382.498 214.229 382.498 213.697C382.498 213.166 382.928 212.736 383.46 212.736H388.458L382.943 201.421C382.71 200.944 382.909 200.368 383.387 200.135C383.865 199.903 384.441 200.101 384.673 200.579L390.863 213.276C391.009 213.574 390.99 213.926 390.814 214.207C390.638 214.488 390.33 214.659 389.998 214.659Z" fill="#161616"/>
<path d="M384.807 217.848C384.472 217.848 384.146 217.672 383.969 217.359C383.707 216.897 383.87 216.31 384.333 216.049L389.524 213.115C389.986 212.854 390.574 213.015 390.835 213.478C391.097 213.94 390.934 214.527 390.472 214.788L385.28 217.723C385.131 217.808 384.968 217.848 384.807 217.848Z" fill="#161616"/>
<path d="M362.614 179.964C362.614 179.964 366.547 181.383 368.552 179.129C370.558 176.876 368.774 172.953 368.774 172.953C368.774 172.953 373.048 173.801 375.51 171.361L372.087 169.821C372.087 169.821 358.329 154.36 350.282 168.626C350.282 168.626 356.463 179.196 359.471 185.032C360.662 184.509 362.972 183.081 362.614 179.964Z" fill="#EAEFE8"/>
<path d="M359.471 185.993C359.121 185.993 358.785 185.802 358.615 185.472C355.653 179.726 349.513 169.217 349.451 169.112C349.279 168.817 349.276 168.452 349.443 168.155C351.889 163.819 355.104 161.62 358.998 161.62C365.518 161.62 371.636 167.916 372.663 169.026L375.904 170.485C376.194 170.615 376.4 170.879 376.457 171.19C376.513 171.502 376.412 171.822 376.187 172.045C374.386 173.83 371.821 174.102 370.158 174.052C370.558 175.602 370.819 178.03 369.271 179.769C368.34 180.814 366.955 181.367 365.264 181.367C364.648 181.367 364.068 181.294 363.586 181.204C363.3 184.073 360.96 185.429 359.858 185.913C359.732 185.968 359.601 185.993 359.471 185.993ZM351.397 168.627C352.577 170.656 357.168 178.581 359.878 183.731C360.938 183.059 361.872 181.933 361.658 180.073C361.619 179.743 361.755 179.416 362.017 179.209C362.278 179.003 362.628 178.947 362.941 179.059C362.949 179.062 364.034 179.443 365.265 179.443C366.406 179.443 367.27 179.122 367.833 178.49C369.379 176.752 367.913 173.384 367.897 173.35C367.748 173.022 367.795 172.638 368.019 172.355C368.243 172.073 368.606 171.938 368.961 172.009C368.969 172.011 371.53 172.484 373.568 171.542L371.691 170.698C371.568 170.642 371.458 170.561 371.368 170.46C371.306 170.391 365.128 163.544 358.999 163.544C355.988 163.543 353.432 165.253 351.397 168.627Z" fill="#161616"/>
<path d="M375.51 171.361C375.51 171.361 373.643 187.882 383.378 191.612C393.113 195.342 396.748 181.098 396.748 181.098L375.51 171.361Z" fill="#EAEFE8"/>
<path d="M386.518 193.116H386.517C385.394 193.116 384.221 192.925 383.033 192.47C378.715 190.815 375.883 186.594 374.843 180.223C374.08 175.549 374.534 171.417 374.553 171.243C374.588 170.936 374.768 170.67 375.036 170.519C375.306 170.366 375.63 170.355 375.911 170.484L397.149 180.222C397.571 180.416 397.795 180.884 397.68 181.334C397.649 181.453 396.917 184.244 395.234 187.112C392.914 191.067 389.9 193.116 386.518 193.116ZM376.373 172.815C376.195 176.711 376.353 187.891 383.723 190.714C384.69 191.085 385.631 191.273 386.518 191.273C392.009 191.274 394.809 184.027 395.586 181.623L376.373 172.815Z" fill="#161616"/>
<path d="M350.282 168.627C350.282 168.627 346.908 169.909 346.129 173.807L352.338 172.178L350.282 168.627Z" fill="#161616"/>
<path d="M359.262 168.727C360.056 168.727 360.698 168.085 360.698 167.292C360.698 166.5 360.056 165.857 359.262 165.857C358.469 165.857 357.826 166.5 357.826 167.292C357.826 168.085 358.469 168.727 359.262 168.727Z" fill="#161616"/>
<path d="M330.344 212.777C330.344 212.777 337.679 220.625 344.281 216.945C350.882 213.265 350.882 202.66 344.281 202.222C337.679 201.783 342.569 215.953 330.344 212.777Z" fill="#8DC73F"/>
<path d="M341.303 222.545C340.771 222.545 340.34 222.115 340.34 221.584V218.121C340.34 217.59 340.771 217.16 341.303 217.16C341.834 217.16 342.265 217.59 342.265 218.121V221.584C342.265 222.115 341.834 222.545 341.303 222.545Z" fill="#161616"/>
<path d="M344.382 221.007C343.851 221.007 343.42 220.576 343.42 220.045V216.967C343.42 216.436 343.851 216.006 344.382 216.006C344.914 216.006 345.345 216.436 345.345 216.967V220.045C345.345 220.576 344.914 221.007 344.382 221.007Z" fill="#161616"/>
<path d="M348.375 205.036C348.375 205.036 352.948 206.536 353.193 209.534L348.742 208.894L348.375 205.036Z" fill="#161616"/>
<path d="M344.388 207.361C345.135 207.361 345.741 206.755 345.741 206.009C345.741 205.262 345.135 204.657 344.388 204.657C343.641 204.657 343.035 205.262 343.035 206.009C343.035 206.755 343.641 207.361 344.388 207.361Z" fill="#161616"/>
<path d="M314.573 188.957C314.573 188.957 321.909 196.805 328.51 193.125C335.111 189.446 335.111 178.84 328.51 178.402C321.909 177.963 326.798 192.133 314.573 188.957Z" fill="#8DC73F"/>
<path d="M325.517 198.694C324.986 198.694 324.555 198.264 324.555 197.733V194.27C324.555 193.739 324.986 193.309 325.517 193.309C326.049 193.309 326.48 193.739 326.48 194.27V197.733C326.48 198.264 326.049 198.694 325.517 198.694Z" fill="#161616"/>
<path d="M328.598 197.54C328.066 197.54 327.635 197.11 327.635 196.578V193.116C327.635 192.585 328.066 192.155 328.598 192.155C329.129 192.155 329.56 192.585 329.56 193.116V196.578C329.56 197.11 329.129 197.54 328.598 197.54Z" fill="#161616"/>
<path d="M332.605 181.217C332.605 181.217 337.177 182.716 337.423 185.714L332.971 185.073L332.605 181.217Z" fill="#161616"/>
<path d="M328.603 183.894C329.35 183.894 329.956 183.289 329.956 182.542C329.956 181.796 329.35 181.191 328.603 181.191C327.856 181.191 327.25 181.796 327.25 182.542C327.25 183.289 327.856 183.894 328.603 183.894Z" fill="#161616"/>
<path d="M477.677 156.767C477.876 157.965 477.065 159.098 475.866 159.296C474.668 159.495 473.534 158.685 473.335 157.487L456.345 55.178C456.145 53.9801 456.956 52.8475 458.155 52.649C459.353 52.4501 460.487 53.2603 460.686 54.4583L477.677 156.767Z" fill="#DEE5DC"/>
<path d="M475.503 160.288C473.952 160.288 472.64 159.176 472.386 157.644L455.395 55.3354C455.256 54.503 455.451 53.6659 455.942 52.9792C456.434 52.2925 457.164 51.8382 457.997 51.7005C458.169 51.672 458.344 51.6574 458.518 51.6574C460.07 51.6574 461.381 52.7695 461.635 54.301L478.626 156.61C478.912 158.329 477.745 159.96 476.024 160.245C475.852 160.273 475.677 160.288 475.503 160.288ZM458.518 53.5805C458.449 53.5805 458.381 53.5862 458.312 53.5974C457.986 53.6516 457.701 53.8297 457.508 54.0983C457.316 54.3668 457.24 54.6945 457.294 55.02L474.285 157.329C474.395 157.996 475.035 158.461 475.709 158.347C476.382 158.235 476.839 157.597 476.727 156.924L459.737 54.6153C459.637 54.0159 459.124 53.5805 458.518 53.5805Z" fill="#161616"/>
<path d="M458.161 72.2647L464.372 71.0417C464.372 71.0417 464.606 41.8904 456.251 41.1126C447.896 40.3351 458.161 72.2647 458.161 72.2647Z" fill="#946D42"/>
<path d="M476.175 148.844C476.175 148.844 479.632 159.852 486.779 160.087C493.321 160.303 497.089 190.831 497.089 190.831C497.089 190.831 494.795 194.926 494.014 191.341C493.233 187.756 488.765 169.515 486.338 169.447C483.91 169.38 488.382 192.123 488.382 192.123C488.382 192.123 487.097 197.816 485.133 193.831C483.17 189.846 480.682 170.385 477.938 170.654C475.195 170.923 479.344 194.938 479.344 194.938C479.344 194.938 478.003 199.028 476.44 196.331C474.877 193.635 472.2 170.802 468.713 172.184C466.116 173.212 469.411 195.42 469.411 195.42C469.411 195.42 468.439 202.993 466.334 195.92C465.357 192.636 459.805 172.748 462.929 165.342C464.529 161.547 472.668 162.427 472.014 149.534L476.175 148.844Z" fill="white"/>
<path d="M468.005 199.901C466.768 199.901 466.074 198.419 465.412 196.194C464.712 193.84 458.669 172.965 462.042 164.969C462.66 163.503 463.977 162.663 465.371 161.773C468.232 159.947 471.474 157.876 471.054 149.583C471.029 149.094 471.375 148.665 471.858 148.585L476.018 147.895C476.491 147.816 476.95 148.098 477.094 148.555C477.127 148.659 480.434 158.916 486.811 159.126C491.14 159.269 493.744 168.439 495.326 175.325C497.077 182.944 498.036 190.636 498.045 190.713C498.069 190.916 498.029 191.178 497.929 191.356C497.513 192.1 496.397 193.886 495.041 193.886C495.041 193.886 495.041 193.886 495.041 193.886C494.365 193.886 493.475 193.443 493.074 191.601C490.792 181.13 487.952 173.047 486.606 170.923C486.288 173.8 487.667 183.512 489.326 191.951C489.352 192.083 489.414 192.211 489.384 192.342C489.121 193.506 488.18 196.212 486.64 196.212V196.21C485.1 196.211 484.571 194.74 484.333 194.257C483.526 192.619 482.682 188.89 481.742 184.572C480.881 180.619 479.32 173.528 478.162 171.883C477.474 174.402 478.665 185.308 480.301 194.775C480.328 194.929 480.312 195.088 480.263 195.238C480.034 195.935 479.16 198.213 477.547 198.213C476.8 198.213 476.147 197.742 475.609 196.813C475.024 195.805 474.461 193.123 473.516 188.471C472.833 185.105 472.059 181.29 471.208 178.241C470.127 174.367 469.368 173.394 469.085 173.153C468.324 174.67 468.581 183.269 470.363 195.279C470.376 195.366 470.377 195.455 470.366 195.542C469.995 198.435 469.2 199.901 468.005 199.901ZM473.007 150.344C473.2 159.056 469.288 161.555 466.406 163.394C465.174 164.181 464.201 164.802 463.816 165.715C462.588 168.626 462.666 174.26 464.041 182.009C465.251 188.822 467.055 194.968 467.257 195.646C467.541 196.601 467.778 197.186 467.952 197.539C468.139 197.01 468.331 196.201 468.439 195.426C468.311 194.537 467.582 189.427 467.13 184.272C466.15 173.13 467.25 171.729 468.358 171.29C468.572 171.205 468.794 171.162 469.017 171.162C471.558 171.162 472.98 176.152 475.403 188.089C476.099 191.518 476.818 195.064 477.273 195.85C477.397 196.063 477.495 196.18 477.557 196.242C477.787 196.04 478.13 195.441 478.353 194.854C477.423 189.435 474.796 172.927 476.789 170.311C477.137 169.855 477.555 169.726 477.844 169.697C477.894 169.692 477.944 169.69 477.994 169.69C480.084 169.69 481.225 173.303 483.59 184.163C484.427 188.005 485.293 191.979 485.996 193.406C486.225 193.871 486.403 194.102 486.507 194.212C486.787 193.893 487.172 192.984 487.396 192.101C487.2 191.086 486.326 186.497 485.623 181.766C483.963 170.592 484.849 169.514 485.276 168.997C485.547 168.667 485.92 168.486 486.327 168.486C487.452 168.516 488.853 169.34 491.714 178.796C493.322 184.11 494.625 189.624 494.954 191.136C495.023 191.449 495.093 191.645 495.148 191.762C495.404 191.563 495.79 191.1 496.092 190.624C495.891 189.091 494.973 182.384 493.446 175.742C490.335 162.21 487.532 161.074 486.747 161.049C480.11 160.83 476.516 152.575 475.533 149.926L473.007 150.344Z" fill="#161616"/>
<path d="M77.9144 93.5748C87.1077 93.5748 94.5603 86.1282 94.5603 76.9422C94.5603 67.7563 87.1077 60.3096 77.9144 60.3096C68.7212 60.3096 61.2686 67.7563 61.2686 76.9422C61.2686 86.1282 68.7212 93.5748 77.9144 93.5748Z" fill="#DEE5DC"/>
<path d="M78.5438 65.7237C85.2285 65.7237 90.6474 60.3091 90.6474 53.6297C90.6474 46.9504 85.2285 41.5357 78.5438 41.5357C71.8592 41.5357 66.4402 46.9504 66.4402 53.6297C66.4402 60.3091 71.8592 65.7237 78.5438 65.7237Z" fill="#DEE5DC"/>
<path d="M78.369 116.178C78.3682 116.178 78.3675 116.178 78.3667 116.178C77.835 116.178 77.4053 115.662 77.4065 115.131L77.5813 48.7891C77.5824 48.259 78.0133 47.702 78.5438 47.702C78.5446 47.702 78.5453 47.702 78.5461 47.702C79.0778 47.702 79.5074 48.2221 79.5063 48.753L79.3315 115.092C79.3303 115.623 78.8995 116.178 78.369 116.178Z" fill="#161616"/>
<path d="M78.3683 81.5124C78.215 81.5124 78.0595 81.4754 77.9147 81.3981L68.9204 76.5867C68.4518 76.3363 68.2755 75.7531 68.5261 75.2849C68.7775 74.8164 69.3604 74.6406 69.829 74.891L78.8233 79.7024C79.2919 79.9528 79.4682 80.536 79.2176 81.0042C79.0443 81.3277 78.7117 81.5124 78.3683 81.5124Z" fill="#161616"/>
<path d="M78.5433 61.2705C78.3258 61.2705 78.1067 61.1975 77.9265 61.0467C77.5184 60.7058 77.4645 60.0995 77.8056 59.6921L84.8812 51.2366C85.2223 50.8288 85.829 50.7742 86.2367 51.1158C86.6448 51.4566 86.6987 52.0629 86.3576 52.4703L79.2821 60.9259C79.0919 61.1536 78.8186 61.2705 78.5433 61.2705Z" fill="#161616"/>
<path d="M165.091 346.582C165.016 346.582 164.94 346.574 164.864 346.555C164.348 346.43 164.03 345.91 164.155 345.394C164.225 345.106 165.918 338.238 170.673 329.503C175.065 321.435 183.003 310.238 195.883 302.718C196.342 302.449 196.931 302.604 197.199 303.062C197.467 303.521 197.313 304.11 196.854 304.378C172.922 318.352 166.092 345.573 166.026 345.846C165.919 346.287 165.525 346.582 165.091 346.582Z" fill="#161616"/>
<path d="M150.632 343.005C150.602 343.005 150.57 343.003 150.539 343C150.01 342.949 149.622 342.479 149.673 341.951C149.732 341.335 155.397 280.232 138.764 261.88C138.407 261.486 138.437 260.878 138.832 260.522C139.226 260.165 139.834 260.196 140.191 260.589C147.445 268.593 151.564 284.775 152.434 308.685C153.078 326.385 151.604 341.979 151.589 342.134C151.542 342.632 151.122 343.005 150.632 343.005Z" fill="#161616"/>
<path d="M196.463 300.625C196.463 300.625 203.992 287.618 197.517 284.466C192.256 281.905 190.499 297.35 196.463 300.625Z" fill="#8DC73F"/>
<path d="M196.204 301.6C195.674 301.6 195.244 301.166 195.241 300.636L195.178 287.596C195.176 287.066 195.605 286.597 196.136 286.597C196.138 286.597 196.139 286.597 196.141 286.597C196.671 286.597 197.101 287.054 197.104 287.584L197.167 300.612C197.169 301.143 196.74 301.6 196.209 301.6C196.207 301.6 196.205 301.6 196.204 301.6Z" fill="#161616"/>
<path d="M181.29 313.876C181.29 313.876 186.344 299.726 179.405 297.793C173.768 296.224 174.831 311.732 181.29 313.876Z" fill="#8DC73F"/>
<path d="M181.033 314.885C180.58 314.885 180.175 314.564 180.088 314.102L177.676 301.32C177.577 300.799 177.921 300.295 178.443 300.197C178.965 300.1 179.469 300.442 179.568 300.964L181.98 313.746C182.079 314.267 181.735 314.77 181.213 314.869C181.153 314.88 181.093 314.885 181.033 314.885Z" fill="#161616"/>
<path d="M168.702 331.617C168.702 331.617 172.837 317.171 165.789 315.688C160.063 314.483 162.119 329.89 168.702 331.617Z" fill="#8DC73F"/>
<path d="M168.449 332.642C168.02 332.642 167.628 332.353 167.517 331.918L164.29 319.318C164.158 318.804 164.468 318.28 164.984 318.148C165.498 318.015 166.023 318.326 166.155 318.841L169.382 331.441C169.514 331.956 169.204 332.48 168.688 332.612C168.608 332.632 168.528 332.642 168.449 332.642Z" fill="#161616"/>
<path d="M201.75 301.473C201.75 301.473 216.712 302.968 216.919 295.774C217.086 289.929 202.278 294.694 201.75 301.473Z" fill="#8DC73F"/>
<path d="M201.644 302.199C201.279 302.199 200.93 301.991 200.768 301.638C200.547 301.155 200.759 300.584 201.243 300.363L213.076 294.947C213.56 294.724 214.131 294.938 214.352 295.42C214.574 295.903 214.361 296.474 213.878 296.695L202.044 302.111C201.914 302.171 201.778 302.199 201.644 302.199Z" fill="#161616"/>
<path d="M189.694 310.152C189.694 310.152 201.042 320.008 205.371 314.256C208.886 309.582 194.045 304.923 189.694 310.152Z" fill="#8DC73F"/>
<path d="M202.536 313.269C202.476 313.269 202.416 313.264 202.356 313.253L189.565 310.842C189.042 310.744 188.699 310.241 188.798 309.719C188.896 309.197 189.4 308.855 189.922 308.952L202.713 311.363C203.236 311.461 203.579 311.964 203.48 312.486C203.393 312.947 202.989 313.269 202.536 313.269Z" fill="#161616"/>
<path d="M174.919 328.282C174.919 328.282 188.562 334.599 191.119 327.871C193.197 322.405 177.644 322.05 174.919 328.282Z" fill="#8DC73F"/>
<path d="M174.895 328.985C174.405 328.985 173.986 328.612 173.938 328.115C173.887 327.586 174.275 327.116 174.804 327.066L187.762 325.83C188.293 325.781 188.761 326.167 188.812 326.696C188.862 327.224 188.475 327.694 187.945 327.744L174.988 328.981C174.956 328.984 174.926 328.985 174.895 328.985Z" fill="#161616"/>
<path d="M140.36 256.481C140.36 256.481 153.11 240.914 145.233 235.354C138.834 230.839 133.183 250.87 140.36 256.481Z" fill="#8DC73F"/>
<path d="M140.018 257.386C139.968 257.386 139.917 257.382 139.867 257.375C139.341 257.292 138.983 256.799 139.066 256.274L141.786 239.074C141.869 238.55 142.359 238.194 142.887 238.275C143.412 238.358 143.771 238.85 143.687 239.375L140.967 256.575C140.893 257.048 140.483 257.386 140.018 257.386Z" fill="#161616"/>
<path d="M151.529 282.965C151.529 282.965 168.759 275.861 164.778 267.875C161.542 261.389 148.14 275.244 151.529 282.965Z" fill="#8DC73F"/>
<path d="M151.273 283.73C151.069 283.73 150.865 283.666 150.691 283.533C150.267 283.211 150.185 282.608 150.507 282.185L160.277 269.354C160.598 268.931 161.202 268.849 161.625 269.171C162.048 269.493 162.13 270.096 161.809 270.519L152.039 283.35C151.85 283.599 151.563 283.73 151.273 283.73Z" fill="#161616"/>
<path d="M154.4 318.344C154.4 318.344 171.63 311.24 167.649 303.254C164.413 296.768 151.011 310.623 154.4 318.344Z" fill="#8DC73F"/>
<path d="M154.144 319.109C153.94 319.109 153.735 319.045 153.561 318.912C153.138 318.591 153.056 317.987 153.378 317.565L163.148 304.734C163.469 304.31 164.073 304.228 164.496 304.55C164.919 304.872 165.001 305.475 164.679 305.898L154.91 318.729C154.721 318.978 154.434 319.109 154.144 319.109Z" fill="#161616"/>
<path d="M136.935 259.15C136.935 259.15 118.415 257.041 120.052 248.271C121.383 241.147 138.074 250.797 136.935 259.15Z" fill="#8DC73F"/>
<path d="M137.126 259.853C136.925 259.853 136.723 259.79 136.55 259.661L123.633 249.999C123.207 249.681 123.12 249.078 123.439 248.653C123.758 248.228 124.361 248.141 124.787 248.46L137.704 258.121C138.129 258.439 138.216 259.042 137.897 259.467C137.708 259.719 137.419 259.853 137.126 259.853Z" fill="#161616"/>
<path d="M144.197 275.926C144.197 275.926 125.816 279.021 124.96 270.141C124.265 262.926 142.977 267.584 144.197 275.926Z" fill="#8DC73F"/>
<path d="M144.308 276.585C144.195 276.585 144.08 276.565 143.968 276.523L128.879 270.812C128.382 270.623 128.131 270.068 128.32 269.571C128.508 269.075 129.063 268.825 129.561 269.013L144.65 274.724C145.147 274.912 145.397 275.467 145.209 275.964C145.063 276.348 144.697 276.585 144.308 276.585Z" fill="#161616"/>
<path d="M148.981 299.83C148.981 299.83 130.601 302.926 129.744 294.045C129.049 286.831 147.762 291.488 148.981 299.83Z" fill="#8DC73F"/>
<path d="M149.094 300.49C148.98 300.49 148.865 300.469 148.753 300.427L133.664 294.716C133.167 294.528 132.917 293.972 133.105 293.476C133.294 292.979 133.85 292.73 134.347 292.917L149.435 298.628C149.932 298.816 150.182 299.372 149.994 299.869C149.848 300.253 149.482 300.49 149.094 300.49Z" fill="#161616"/>
<path d="M147.971 326.736C147.971 326.736 135.558 328.827 134.979 322.829C134.509 317.957 147.148 321.102 147.971 326.736Z" fill="#8DC73F"/>
<path d="M148.047 327.494C147.934 327.494 147.818 327.474 147.706 327.432L137.515 323.574C137.018 323.386 136.768 322.831 136.956 322.334C137.145 321.838 137.701 321.588 138.198 321.775L148.388 325.633C148.885 325.821 149.136 326.376 148.947 326.873C148.801 327.257 148.435 327.494 148.047 327.494Z" fill="#161616"/>
<path d="M431.509 240.129L482.121 240.862L485.994 288.877C485.994 288.877 486.544 296.939 479.943 296.939C473.341 296.939 431.509 297.122 431.509 297.122C431.509 297.122 423.282 294.373 424.383 288.328C425.482 282.281 431.509 240.129 431.509 240.129Z" fill="#EAEFE8"/>
<path d="M431.509 298.138C431.405 298.138 431.302 298.094 431.204 298.061C431.114 298.031 428.975 297.294 426.954 295.774C424.133 293.653 422.916 291.017 423.435 288.163C424.52 282.203 430.496 240.474 430.556 240.053C430.624 239.578 431.03 239.279 431.508 239.279C431.513 239.279 431.518 239.279 431.523 239.279L482.134 239.957C482.631 239.964 483.04 240.319 483.08 240.813L486.953 288.814C486.967 289.009 487.232 293.332 484.771 295.964C483.565 297.254 481.94 297.931 479.943 297.931C473.419 297.931 431.932 298.138 431.513 298.138C431.512 298.138 431.51 298.138 431.509 298.138ZM432.342 241.103C431.486 247.074 426.334 282.978 425.33 288.5C424.461 293.267 430.655 295.781 431.674 296.16C434.591 296.147 473.628 295.977 479.943 295.977C481.403 295.977 482.521 295.542 483.359 294.648C485.249 292.634 485.036 288.978 485.034 288.941L481.232 241.811L432.342 241.103Z" fill="#161616"/>
<path d="M424.383 288.328C423.282 294.374 431.509 297.122 431.509 297.122C431.509 297.122 473.341 296.939 479.943 296.939C486.544 296.939 485.994 288.877 485.994 288.877C455.054 268.548 424.383 288.328 424.383 288.328Z" fill="#B2BCAF"/>
<path d="M431.509 298.138C431.405 298.138 431.302 298.094 431.204 298.061C431.114 298.031 428.975 297.294 426.954 295.774C424.133 293.653 422.916 291.017 423.435 288.163C423.531 287.64 424.031 287.289 424.555 287.385C425.077 287.48 425.425 287.979 425.33 288.502C424.465 293.253 430.656 295.78 431.675 296.161C434.6 296.148 473.628 295.978 479.942 295.978C481.403 295.978 482.52 295.543 483.359 294.649C485.249 292.634 485.035 288.978 485.034 288.941C484.999 288.412 485.4 287.954 485.93 287.919C486.464 287.886 486.918 288.283 486.954 288.812C486.966 288.995 487.231 293.324 484.771 295.956C483.565 297.247 481.94 297.928 479.942 297.928C473.419 297.928 431.931 298.138 431.513 298.138C431.512 298.138 431.51 298.138 431.509 298.138Z" fill="#161616"/>
<path d="M500.825 281.98H485.421C484.922 281.98 484.505 281.599 484.462 281.101L483.863 274.177C483.84 273.909 483.931 273.643 484.113 273.444C484.295 273.246 484.553 273.133 484.823 273.133H492.886L482.997 261.414C482.868 261.261 482.79 261.072 482.773 260.872L481.87 249.768C481.836 249.348 482.079 248.955 482.47 248.798C482.862 248.64 483.31 248.756 483.576 249.083L501.563 271.141C501.587 271.171 501.61 271.202 501.63 271.234C501.746 271.417 504.449 275.74 503.559 279.059C503.225 280.304 502.456 281.25 501.272 281.871C501.134 281.942 500.981 281.98 500.825 281.98ZM486.304 280.057H500.572C501.156 279.698 501.526 279.208 501.699 278.564C502.25 276.516 500.711 273.403 500.033 272.309L484.04 252.697L484.668 260.41L495.693 273.474C495.934 273.76 495.988 274.16 495.83 274.5C495.672 274.839 495.332 275.056 494.957 275.056H485.872L486.304 280.057Z" fill="#161616"/>
<path d="M463.778 270.898C463.482 270.898 463.191 270.762 463.002 270.506C462.687 270.079 462.778 269.476 463.206 269.162C473.041 261.923 476.393 244.322 474.293 235.856C473.909 234.307 472.983 231.664 471.097 231.381C464.093 230.331 457.184 240.558 457.116 240.662C456.821 241.104 456.223 241.223 455.781 240.929C455.339 240.635 455.219 240.038 455.513 239.596C455.822 239.132 463.173 228.25 471.383 229.478C472.953 229.714 475.055 230.931 476.162 235.394C478.438 244.572 474.967 262.894 464.348 270.71C464.176 270.837 463.976 270.898 463.778 270.898Z" fill="#161616"/>
<path d="M403.368 253.273C400.904 253.273 398.005 252.603 394.496 251.016C394.011 250.797 393.797 250.227 394.016 249.743C394.236 249.259 394.806 249.046 395.29 249.264C406.515 254.341 410.402 249.288 415.323 242.892C417.581 239.957 419.916 236.922 423.181 234.568C426.108 232.456 429.206 231.654 432.388 232.182C438.875 233.257 443.35 239.472 443.537 239.736C443.845 240.17 443.743 240.77 443.309 241.077C442.875 241.384 442.275 241.282 441.968 240.849C441.927 240.791 437.754 235.016 432.064 234.078C429.409 233.641 426.8 234.329 424.307 236.127C421.27 238.317 419.023 241.239 416.849 244.064C413.234 248.762 409.763 253.273 403.368 253.273Z" fill="#161616"/>
<path d="M468.267 263.495C468.267 263.495 456.058 272.005 461.372 285.706C461.372 285.707 475.383 281.19 468.267 263.495Z" fill="#8DC73F"/>
<path d="M391.742 237.652C391.742 237.652 400.02 250.015 413.833 244.972C413.833 244.972 409.586 230.888 391.742 237.652Z" fill="#8DC73F"/>
<path d="M421.379 237.935C421.379 237.935 409.7 247.16 415.826 260.519C415.826 260.519 429.541 255.173 421.379 237.935Z" fill="#8DC73F"/>
<path d="M450.23 253.602C450.23 253.602 462.746 261.656 473.412 251.539C473.412 251.539 463.908 240.304 450.23 253.602Z" fill="#8DC73F"/>
<path d="M475.001 245.027C475.001 245.027 468.945 258.616 480.579 267.604C480.579 267.604 490.241 256.505 475.001 245.027Z" fill="#8DC73F"/>
<path d="M433.085 232.854C433.085 232.854 427.69 222.444 416.43 225.18C416.43 225.18 418.517 236.582 433.085 232.854Z" fill="#8DC73F"/>
<path d="M484.775 236.948C484.775 236.948 481.43 229.04 473.052 230.395C473.052 230.395 473.925 238.84 484.775 236.948Z" fill="#8DC73F"/>
<path d="M457.895 237.53C461.191 237.53 463.863 234.86 463.863 231.567C463.863 228.273 461.191 225.603 457.895 225.603C454.599 225.603 451.927 228.273 451.927 231.567C451.927 234.86 454.599 237.53 457.895 237.53Z" fill="#946D42"/>
<path d="M470.215 225.672C473.548 225.672 476.251 222.972 476.251 219.641C476.251 216.311 473.548 213.61 470.215 213.61C466.882 213.61 464.179 216.311 464.179 219.641C464.179 222.972 466.882 225.672 470.215 225.672Z" fill="#946D42"/>
</svg>
